<?xml version="1.0" encoding="utf-8"?>
<!-- Generator: Adobe Illustrator 24.1.2, SVG Export Plug-In . SVG Version: 6.00 Build 0)  -->
<svg version="1.1" id="Layer_1" xmlns="http://www.w3.org/2000/svg" xmlns:xlink="http://www.w3.org/1999/xlink" x="0px" y="0px"
	 viewBox="0 0 700 600" style="enable-background:new 0 0 700 600;" xml:space="preserve">
<style type="text/css">
	.st0{fill:#D1D1D1;}
	.st1{fill:#F5F5F5;}
	.st2{fill:none;stroke:#D1D1D1;stroke-width:2;stroke-miterlimit:10;}
	.st3{fill:#FFBC9D;}
	.st4{fill:none;stroke:#D1D1D1;stroke-width:1.23;stroke-miterlimit:10;}
	.st5{fill:#17212B;}
	.st6{fill:#2F4559;}
	.st7{fill:none;stroke:#E3E3E3;stroke-width:2;stroke-miterlimit:10;}
	.st8{fill:none;stroke:#F2F3F4;stroke-width:2;stroke-miterlimit:10;}
	.st9{fill:#45B34A;}
	.st10{fill:#FFFFFF;}
	.st11{fill:#636363;}
</style>
<rect x="577.8" y="168.5" class="st0" width="12.2" height="173.9"/>
<rect x="455.1" y="169.4" class="st1" width="122.7" height="172.9"/>
<rect x="469.8" y="190.2" class="st0" width="93.2" height="131.4"/>
<rect x="455.1" y="169.4" class="st2" width="122.7" height="172.9"/>
<path class="st1" d="M534.1,221.3c-0.9,2.8-7.5,5.1-16.8,5.1s-16.8-2.3-16.8-5.1s7.8-2.8,16.8-5.1
	C532.3,212.4,535,218.6,534.1,221.3z"/>
<path class="st1" d="M539,243.6c0,2.8-9.7,5.1-21.6,5.1s-20.3-2.6-21.6-5.1c-1.5-2.6-0.5-9.4,21.6-5.1
	C529,240.9,539,240.9,539,243.6z"/>
<path class="st1" d="M543.8,266c0,2.8-11.8,5.1-26.5,5.1s-26.4-2.3-26.4-5.1s12.1-2.3,26.4-5C546.4,255.4,543.8,263.2,543.8,266z"/>
<path class="st1" d="M548.6,288.4c0,2.8-14,5.1-31.3,5.1s-31.3-2.3-31.3-5.1s4.8-11.9,31.3-5.1C534,287.6,548.6,285.6,548.6,288.4z"
	/>
<path class="st3" d="M380.9,354.5c-1.6,3.6-10.5,10.6-15.7,13.3S346,378.6,346,378.6c-0.7,2.1-2.3,3.9-4.3,4.8
	c-1.4,0.6-2.9,1.1-4.3,1.5c-0.1-2.2,1.3-4.2,3.3-5l-5,2c0,0,0.7,2.5-2.9,1.9s0.9-6.4,4.8-7.3c2.1-0.5,4.2-1.2,6.1-2.3
	c0,0,7.8-9,13.9-15.2s12.4-14.1,12.4-14.1l10.8-2.6L380.9,354.5L380.9,354.5z"/>
<polygon class="st0" points="216,519.1 216,544.9 238.5,544.9 238.5,510.9 "/>
<polygon class="st0" points="144.2,519.1 144.2,544.9 163.6,544.9 163.6,510.9 "/>
<polygon class="st1" points="219,401.7 105.1,401.7 105.1,519.1 105.1,544.9 127.5,544.9 127.5,519.1 219,519.1 "/>
<rect x="116.3" y="414.1" class="st4" width="90.4" height="90.4"/>
<rect x="116.3" y="414.1" class="st5" width="47.3" height="90.4"/>
<rect x="163.6" y="414.1" class="st6" width="43.2" height="90.4"/>
<line class="st7" x1="350" y1="114.7" x2="350" y2="54.7"/>
<line class="st8" x1="307.3" y1="135.7" x2="392.8" y2="135.7"/>
<circle class="st7" cx="350" cy="135.7" r="10.3"/>
<path class="st1" d="M383.5,135.7h-67.1v-2.2c0-18.5,15-33.5,33.5-33.5l0,0c18.5,0,33.5,15,33.5,33.5c0,0,0,0,0,0V135.7z"/>
<path class="st9" d="M301.5,528.9h-8.1c-18.2,0-18.6,15.9-18.6,15.9h50.8l-5.8-15.9l3-5.5h-17.7L301.5,528.9z"/>
<rect x="216" y="401.7" class="st0" width="38.7" height="117.4"/>
<rect x="148.7" y="373.8" class="st9" width="82.3" height="13.9"/>
<rect x="206.9" y="378.2" class="st10" width="24" height="5.2"/>
<rect x="134.6" y="465" class="st9" width="38.6" height="6.5"/>
<rect x="161.9" y="467.1" class="st10" width="11.3" height="2.4"/>
<rect x="138.4" y="387.8" class="st5" width="82.3" height="13.9"/>
<rect x="184.8" y="392.1" class="st10" width="35.9" height="5.2"/>
<rect x="251.8" y="455.6" class="st6" width="191.2" height="63.5"/>
<rect x="271" y="374" class="st6" width="213.4" height="65.6"/>
<rect x="251.8" y="414.7" class="st5" width="191.2" height="40.9"/>
<polygon class="st6" points="235.6,519.1 235.6,544.9 251.8,544.9 251.8,510.9 "/>
<polygon class="st6" points="461.9,519.1 461.9,544.9 478.1,544.9 478.1,510.9 "/>
<rect x="478.4" y="373.8" class="st5" width="51.4" height="145.3"/>
<path class="st6" d="M478.4,373.8L478.4,373.8L478.4,373.8v145.3l0,0H443l0,0V409.2C443,389.6,458.8,373.8,478.4,373.8
	C478.4,373.8,478.4,373.8,478.4,373.8z"/>
<path class="st11" d="M478.4,373.8c-3.4,0.1-6.8,0.7-10.1,1.7c-3.2,1.1-6.3,2.6-9.2,4.5c-2.8,1.9-5.3,4.3-7.5,6.9
	c-2.1,2.7-3.9,5.6-5.3,8.7c-1.3,3.1-2.1,6.5-2.5,9.8c-0.3,3.4-0.2,6.8-0.2,10.3v20.7l0,20.7l-0.1,20.7c-0.1,13.8-0.3,27.6-0.4,41.4
	c-0.1-13.8-0.4-27.6-0.4-41.4l-0.1-20.7l0-20.7v-20.7c0-3.4-0.1-6.9,0.2-10.4c0.8-7,3.6-13.6,8.2-19c2.3-2.6,4.9-4.9,7.9-6.9
	c2.9-1.9,6.1-3.3,9.5-4.3C471.5,374.2,474.9,373.8,478.4,373.8z"/>
<path class="st5" d="M359.8,523.5l28.9-10.3c-0.2-14.9-1.8-29.8-5-44.4c-5.2-23.8-23.9-54.7-23.9-54.7l11.5-26.3
	c0,0-20.9,1.8-30.6,4.4s-21.5,14.2-15.4,36.4S359.8,523.5,359.8,523.5z"/>
<path class="st5" d="M418.5,365.8c0,0,19.4,18.4,6.5,35.9S359.8,429,359.8,429s-16.1,69.6-36.2,100h-33.1c0,0,15.2-64.4,21.9-86.6
	s5.4-20.2,24.8-35.6c14.5-11.5,44.4-38.2,44.4-38.2L418.5,365.8z"/>
<path class="st9" d="M381.9,350.9l-14.1-3.7c0,0,5.2-40.7,7.8-49s6.4-10.3,13.7-9.7S381.9,350.9,381.9,350.9z"/>
<path class="st9" d="M407.6,283.8c0,0-7.4,11-21.9,6.1c0,0-8.2,11.9-14.4,21.7s-0.5,16.6,3.6,30.8s6.7,26.3,6.7,26.3
	s21.9,10.3,36.9-2.8l10.8-12.8l4.3,0.9c0,0,2.7-4.5,2.1-15.9s-6.2-25-10.1-34.5S419.9,286.7,407.6,283.8z"/>
<polygon class="st0" points="346.5,378.2 388.7,378.2 367.8,394.7 340.7,394.7 "/>
<polygon class="st1" points="367.8,394.7 300.4,394.7 288.4,353 355.8,353 "/>
<polygon class="st11" points="300.4,394.7 287.9,353.2 287.7,352.4 288.4,352.5 355.8,353 288.4,353.6 289,352.9 "/>
<path class="st9" d="M386.5,514l10.8,13l-47.8,17.1c0,0-5-15.1,12.2-21.2L386.5,514z"/>
<path class="st3" d="M411.8,349c0,0-19.1,18.1-29.9,31.8c-2.9-0.7-5.9-0.7-8.8,0c-4.4,1.3-13.2,2.6-13.2,2.6s1.1,3.4,6.8,4.4
	c0,0,1.5,1.8-3,3.6s-8.4-0.2-7.9,3.4s8.8,6,15.5,2.6s14.7-11.1,14.7-11.1s23-13.4,32.5-20.4s10.8-12.8,10.8-12.8L411.8,349z"/>
<path class="st11" d="M411.8,349c-0.7-4.8-1.4-9.6-2-14.5s-1.2-9.7-1.8-14.5l-0.8-7.3c-0.3-2.4-0.4-4.9-0.2-7.4
	c0.3-4.9,1.5-9.7,3.7-14.1c-0.9,2.3-1.6,4.6-2.1,7c-0.5,2.4-0.8,4.8-0.8,7.2c-0.1,2.4,0,4.8,0.4,7.2l0.8,7.2c0.5,4.8,1,9.7,1.5,14.5
	S411.5,344.1,411.8,349z"/>
<polygon class="st6" points="552.9,545.3 517,545.3 503.3,486 566.6,486 "/>
<rect x="498.6" y="479.2" class="st6" width="72.7" height="17.8"/>
<path class="st11" d="M505.8,497c2.4-0.2,4.9-0.2,7.3-0.4l7.3-0.2c4.8-0.1,9.7-0.1,14.5-0.2s9.7,0,14.6,0.2l7.3,0.2
	c2.4,0.1,4.8,0.2,7.3,0.4c-2.4,0.2-4.8,0.2-7.3,0.4l-7.3,0.2c-4.8,0.1-9.7,0.1-14.6,0.2s-9.7,0-14.5-0.2l-7.3-0.2
	C510.7,497.3,508.3,497.2,505.8,497z"/>
<path class="st9" d="M541.2,289.1c0,0,0.5,4.9-3.9,18.6s3.4,39.6,16,44.6s22.7-9.7,19.9-24.4s-12.4-23-19.6-29.2
	C549.7,295.2,545.5,292,541.2,289.1z"/>
<path class="st11" d="M548.5,300.4c3.3,6.8,5.8,14,7.5,21.4c1.8,7.4,2.7,14.9,2.8,22.5c0,1.9,0,3.8-0.1,5.7s-0.2,3.8-0.5,5.7
	l-0.8,5.6l-1,5.6c-1.4,7.4-3.2,14.8-4.8,22.2c-1.8,7.3-3.2,14.8-4.1,22.3c-0.9,7.5-1.1,15-0.6,22.6l0.7,11.3
	c0.2,3.8,0.4,7.6,0.5,11.4s0.1,7.6,0,11.4c-0.1,1.9-0.2,3.8-0.4,5.7c-0.1,1.9-0.4,3.9-0.9,5.8l-1.3-0.4c0.4-1.8,0.7-3.6,0.9-5.5
	c0.2-1.9,0.3-3.8,0.4-5.6c0.2-3.8,0.2-7.5,0.1-11.3s-0.2-7.5-0.4-11.3l-0.7-11.3c-0.4-7.6-0.1-15.2,0.8-22.7c1-7.5,2.5-15,4.3-22.3
	c1.8-7.4,3.5-14.7,5-22.1l1.1-5.6l0.8-5.6c0.2-1.9,0.3-3.8,0.5-5.6s0.1-3.8,0.2-5.7c0-7.6-0.9-15.1-2.6-22.5
	C554.1,314.5,551.7,307.3,548.5,300.4z"/>
<path class="st9" d="M527.5,399.1c3.5,5.9,9.5,4.3,18.4,5.4s11.7,2.7,17.5,8.9s24,5.4,28.3,3.5c0,0-9.7-7-15.1-17.8
	s-12.8-21.5-23.1-20.6S519.5,385.6,527.5,399.1z"/>
<path class="st11" d="M575.3,408.4c-2.6-1.2-5.1-2.7-7.3-4.6c-2.2-1.8-4.4-3.7-6.5-5.7s-4.1-4-6.7-5.3c-2.5-1.3-5.3-2.2-8.1-2.5
	c-2.8-0.3-5.7,0-8.4,0.8c-2.7,0.9-5.1,2.5-7,4.6c-1.9,2.1-3.1,4.7-3.4,7.5c-0.1,2.8,0.2,5.7,1.1,8.4c1.6,5.5,3.6,10.9,5.2,16.4
	c1.6,5.5,2.9,11.1,3.8,16.8c1,5.7,1.8,11.4,2.4,17.1c0.6,5.7,1,11.5,1.2,17.2h-1.4c0-5.7-0.4-11.4-1-17.1s-1.3-11.4-2.3-17
	c-0.9-5.6-2.1-11.2-3.7-16.8c-1.5-5.5-3.5-10.9-5-16.5c-0.9-2.8-1.2-5.7-1.1-8.6c0.3-2.9,1.6-5.7,3.7-7.8c2-2.2,4.5-3.8,7.3-4.6
	c2.8-0.8,5.7-1.1,8.6-0.8c2.9,0.3,5.7,1.2,8.2,2.6c1.3,0.7,2.4,1.5,3.5,2.5l3.2,2.9c2.1,2,4.2,3.9,6.4,5.7
	C570.3,405.7,572.7,407.2,575.3,408.4z"/>
<path class="st9" d="M532.1,329.9c0,0-8.1,8.8-17,19.3s-22.1,39.9,0,44.2S546.8,360.4,532.1,329.9z"/>
<path class="st11" d="M532.1,479.2c0.1-3-0.1-6-0.6-9c-0.5-3-1.1-6-1.9-8.9c-1.6-5.9-3.7-11.6-6.3-17.1c-2.5-5.5-5.4-10.9-7.9-16.6
	c-2.7-5.6-4-11.7-4-17.9c0.2-6.1,1.2-12.2,2.8-18.2c1.5-5.9,3.4-11.8,5.2-17.6c3.6-11.7,7.2-23.4,11.1-35
	c-3.8,11.6-7.3,23.4-10.8,35.1c-1.7,5.9-3.5,11.7-5,17.6c-1.6,5.9-2.5,11.9-2.6,18c0,6.1,1.4,12.1,4.1,17.5
	c2.5,5.5,5.5,10.9,8.1,16.5c2.6,5.6,4.8,11.4,6.5,17.4c0.8,3,1.5,6,2,9c0.5,3.1,0.8,6.2,0.7,9.3L532.1,479.2z"/>
<path class="st9" d="M468.3,429.5c7.6,6.4,5.2,16.1,20.1,21.9s25.6-3.9,22.4-13.9s-13.7-11.6-27.6-11.6S468.3,429.5,468.3,429.5z"/>
<path class="st11" d="M479,431.7c2.8,0.8,5.5,2,8.1,3.4c2.6,1.4,5,3.1,7.5,4.6c2.5,1.5,5.1,2.8,7.9,3.8l4.1,1.6l2,0.8
	c0.7,0.3,1.4,0.6,2,0.9l0.5,0.3c0.2,0.1,0.3,0.2,0.5,0.3s0.6,0.5,0.9,0.7c0.5,0.5,1,1.1,1.5,1.6c0.5,0.6,0.9,1.2,1.3,1.8l0.6,0.9
	l0.6,1c1.4,2.6,2.6,5.3,3.5,8.1c0.9,2.8,1.5,5.7,1.8,8.7c0.3,3,0.3,6-0.1,8.9l-1.4-0.2c0.9-5.7,0.4-11.6-1.2-17.1
	c-0.8-2.8-1.9-5.5-3.3-8l-0.5-1l-0.6-0.9c-0.4-0.6-0.8-1.2-1.2-1.8c-0.4-0.6-0.9-1.1-1.4-1.6c-0.3-0.2-0.5-0.5-0.8-0.7
	c-0.1-0.1-0.3-0.2-0.4-0.3l-0.5-0.3c-0.6-0.4-1.3-0.7-1.9-0.9l-2-0.9l-4.1-1.7c-2.7-1.1-5.3-2.5-7.8-4c-2.5-1.5-4.8-3.3-7.4-4.8
	C484.5,433.7,481.8,432.5,479,431.7z"/>
<path class="st6" d="M271,373.8L271,373.8L271,373.8v145.3l0,0h-35.4l0,0V409.2C235.6,389.6,251.4,373.8,271,373.8L271,373.8z"/>
<path class="st11" d="M271,378.6c0.5,5.9,0.6,11.8,0.5,17.7c0,3-0.1,5.9-0.2,8.9s-0.2,5.9-0.4,8.9c-0.2-3-0.3-5.9-0.4-8.9
	s-0.1-5.9-0.2-8.9C270.4,390.4,270.4,384.5,271,378.6z"/>
<rect x="478.4" y="519.1" class="st5" width="10.1" height="25.8"/>
<rect x="249.7" y="519.1" class="st5" width="10.1" height="25.8"/>
<ellipse transform="matrix(0.6698 -0.7426 0.7426 0.6698 -168.3859 366.3742)" class="st0" cx="327.7" cy="372.5" rx="4.2" ry="5.2"/>
<path class="st5" d="M363.5,260.8c0,0-3.1-0.6-6-8.4s-6.1-17.4,1.5-21.3s14.1,8.4,14.1,8.4l-6.7,19.9L363.5,260.8z"/>
<path class="st3" d="M359.8,237l2.7,22.9c0,0,1.4,11.9,9.7,14s13.9-1.6,13.9-1.6c0.9,2.9,1.3,5.9,1,8.9l-1.4,8.8
	c0,0,3.2,2.2,11.6,1.1c7-0.9,10.2-7.2,10.2-7.2s-7.9-7.1-8.9-16.1s-2.4-28.9-2.4-28.9l-15.5-3.2L359.8,237z"/>
<path class="st5" d="M387.1,255c0,0-11,0.3-22.1-8.5s-8-17.2-1.5-21s10.7-3.3,19.9-2.3c0,0-3.3-10.7,9.6-12.2s17,16.1,5.2,18.5
	c0,0,8.5,4,10.1,17.9c1.6,13.9-9.5,22.3-9.5,22.3s-7.4,1.4-5.2-5.9c0,0-4,0.5-3.3-2.6s3.1,0.6,4.3-6.5s-5.1-9.5-6.5-4.3
	S387.1,255,387.1,255z"/>
<path class="st11" d="M383.1,293.8c-3,4.1-5.8,8.4-8.4,12.7l-3.7,6.7c-0.6,1.1-1.1,2.2-1.4,3.4c-0.3,1.2-0.4,2.4-0.3,3.6
	c0.2,2.5,0.7,5,1.4,7.4c0.6,2.4,1.4,4.8,2.1,7.3s1.4,4.9,2.1,7.3s1.3,4.9,1.8,7.4c-1.5-4.9-3.2-9.6-4.8-14.5s-3.4-9.7-3.5-14.9
	c0-1.3,0.1-2.6,0.5-3.9c0.4-1.2,0.9-2.4,1.6-3.6l3.9-6.6C376.9,301.9,379.9,297.8,383.1,293.8z"/>
<path class="st11" d="M406.5,414.7c-7.4,3.3-15.1,6.3-22.8,8.9c-7.8,2.6-15.7,4.6-23.8,5.9l0.4-0.4c-0.9,5-2,10-3.3,14.9
	s-2.6,9.8-4.1,14.7s-3.1,9.7-4.8,14.5s-3.5,9.5-5.4,14.2c1.8-4.8,3.5-9.5,5.1-14.3s3.1-9.6,4.5-14.5s2.7-9.8,3.9-14.7
	s2.2-9.9,3-14.9l0.1-0.4l0.4,0c8.1-1.2,16-3,23.8-5.4C391.3,420.7,399,417.9,406.5,414.7z"/>
<path class="st11" d="M379.8,455.5c-1.1-2.3-2.1-4.6-3.1-7l-3-7l-3-7c-0.5-1.2-1-2.3-1.6-3.5l-0.8-1.7c-0.3-0.6-0.6-1.1-0.8-1.7
	c1.5,2.1,2.8,4.3,3.9,6.5c1.2,2.3,2.3,4.6,3.3,6.9s2,4.7,2.8,7.1S379.1,453,379.8,455.5z"/>
<path class="st11" d="M351.8,394.7L335,408.3c-2.8,2.3-5.6,4.4-8.2,7c-2.6,2.5-4.8,5.3-6.6,8.3c-1.8,3.1-3.3,6.3-4.5,9.7
	c-1.2,3.4-2.4,6.8-3.5,10.2c-2.1,6.9-4,13.8-5.8,20.7c1.4-7,3.1-14,5.1-20.9c1-3.5,2-6.9,3.3-10.3c1.2-3.4,2.7-6.7,4.6-9.8
	c1.9-3.1,4.2-5.9,6.9-8.3c2.6-2.5,5.6-4.6,8.4-6.8L351.8,394.7z"/>
<rect x="135.3" y="300.4" class="st1" width="60.5" height="10.1"/>
<rect x="193" y="300.4" class="st0" width="38.1" height="10.1"/>
<rect x="165.7" y="258.4" class="st1" width="60.5" height="10.1"/>
<rect x="223.4" y="258.4" class="st0" width="38.1" height="10.1"/>
<rect x="123.5" y="216.2" class="st1" width="60.5" height="10.1"/>
<rect x="181.2" y="216.2" class="st0" width="38.1" height="10.1"/>
<rect x="178.3" y="174.7" class="st1" width="60.5" height="10.1"/>
<rect x="236.1" y="174.7" class="st0" width="38.1" height="10.1"/>
<path class="st9" d="M160.3,282.4c0,0-2.1-1.7-3.6-3.1c-1.7-1.8-3-4-3.6-6.5c0,0,7.4,0.9,9.7,4.8s2.1,4.8,2.1,4.8L160.3,282.4z"/>
<path class="st9" d="M179.5,282.4c0,0,2.1-1.7,3.6-3.1c1.7-1.8,3-4,3.6-6.5c0,0-7.4,0.9-9.7,4.8s-2.1,4.8-2.1,4.8L179.5,282.4z"/>
<path class="st9" d="M165,282.4c0,0-2.1-2.3-2.1-8s0.5-7.3,0.5-7.3s5.2,4.5,5.8,8.8c0.3,2.1,0.5,4.3,0.5,6.4L165,282.4z"/>
<path class="st9" d="M169.6,282.4c-0.4-2.9-0.1-5.8,0.9-8.5c1.1-3.3,2.7-6.4,4.6-9.3c0,0,2.9,8.6,1.6,13s-1.4,4.8-1.4,4.8
	L169.6,282.4z"/>
<path class="st11" d="M162.3,281c-1.4-1.3-2.9-2.6-4.3-3.9c-0.7-0.6-1.4-1.3-2.1-2s-1.4-1.3-2.1-2c1.8,0.8,3.4,1.9,4.9,3.3
	c0.7,0.6,1.4,1.3,2.1,2.1C161.4,279.3,161.9,280.1,162.3,281z"/>
<path class="st11" d="M167.2,279.2c-0.3-0.9-0.6-1.7-0.9-2.5l-0.9-2.5c-0.3-0.8-0.6-1.6-0.9-2.5s-0.6-1.7-0.8-2.6
	c1.1,1.4,2,3,2.6,4.7c0.3,0.8,0.6,1.7,0.8,2.6C167.3,277.3,167.3,278.3,167.2,279.2z"/>
<path class="st11" d="M186,273.3c-1.4,1.1-2.6,2-3.9,3.1c-0.6,0.5-1.2,1.1-1.8,1.6s-1.2,1.2-1.8,1.8c0.6-1.6,1.7-3,3-4.2
	c0.6-0.6,1.4-1.1,2.1-1.5C184.3,273.8,185.1,273.5,186,273.3z"/>
<path class="st11" d="M172.3,279.5c-0.1-1.1-0.1-2.3,0-3.4c0.1-1.1,0.3-2.2,0.5-3.3c0.4-2.2,1.1-4.4,2-6.5c-0.2,2.2-0.5,4.5-1,6.6
	C173.4,275.1,172.9,277.3,172.3,279.5z"/>
<path class="st5" d="M169.9,300.4L169.9,300.4c-7.7,0-13.9-6.2-13.9-13.9v-4.1h27.9v4.1C183.9,294.2,177.6,300.4,169.9,300.4
	C169.9,300.4,169.9,300.4,169.9,300.4z"/>
<path class="st9" d="M216.9,183.7c1.6,4.4-1.9,9.2-4.5,8.7c-2.1-0.4-0.2-2.8,1.3-6.3C215,183.1,215.3,179.5,216.9,183.7z"/>
<path class="st9" d="M217.3,170.1c-0.3,4.7,4.5,8.2,6.9,6.9c1.9-1-0.6-2.7-3.1-5.6C219,169,217.6,165.5,217.3,170.1z"/>
<path class="st9" d="M209.3,158.1c-3.1,3.4-1.7,9.2,0.9,9.7c2.1,0.4,1.3-2.5,1.2-6.3C211.3,158.3,212.4,154.8,209.3,158.1z"/>
<path class="st9" d="M263.2,174.9c0.9,4.6,6.5,6.8,8.4,5c1.6-1.5-1.3-2.5-4.5-4.7C264.6,173.4,262.3,170.4,263.2,174.9z"/>
<path class="st9" d="M243,202.5c4.4,1.6,9.2-2,8.6-4.6c-0.4-2.1-2.8-0.2-6.3,1.4C242.4,200.6,238.8,201,243,202.5z"/>
<path class="st9" d="M251.6,250c4.3-1.8,5.5-7.6,3.3-9.2c-1.7-1.3-2.2,1.7-3.8,5.2C249.9,249,247.4,251.7,251.6,250z"/>
<path class="st9" d="M262,229.1c-4.7,0.2-8.1-4.6-6.8-7c1-1.9,2.7,0.7,5.6,3.2C263.1,227.4,266.5,228.9,262,229.1z"/>
<path class="st9" d="M266,257.3c-4.7,0.2-8.1-4.6-6.8-7c1-1.9,2.7,0.6,5.6,3.2C267.2,255.6,270.6,257.1,266,257.3z"/>
<path class="st11" d="M242.2,156.6c-0.5-2.9,0-5.9,1.5-8.5c0.8-1.2,1.9-2.3,3.2-3c1.3-0.7,2.7-1.2,4.2-1.4c1.6-0.2,3.2,0.2,4.4,1.2
	c1.1,1,2,2.2,2.6,3.6c1.1,2.7,1.9,5.5,2.2,8.4c0.7,5.7,0.7,11.4,0.2,17.1c-0.5,5.7-1.4,11.4-2.8,16.9c-0.4,1.4-0.7,2.8-1.2,4.1
	s-0.9,2.7-1.3,4c-0.8,2.7-1.3,5.5-1.6,8.3c-0.5,5.6-0.4,11.3,0.3,16.9c0.6,5.6,1.7,11.2,3.3,16.6c0.8,2.7,1.7,5.4,2.8,8
	c0.6,1.3,1.2,2.6,1.9,3.8c0.7,1.2,1.6,2.4,2.6,3.3c-1.1-0.9-2.1-2-2.8-3.2c-0.7-1.2-1.4-2.5-2-3.8c-1.2-2.6-2.2-5.3-3.1-8
	c-1.7-5.4-2.9-11-3.7-16.7c-0.8-5.7-0.9-11.4-0.5-17.1c0.3-2.9,0.8-5.7,1.5-8.5c0.4-1.4,0.9-2.7,1.3-4.1s0.8-2.7,1.1-4.1
	c1.4-5.5,2.3-11.1,2.8-16.7c0.5-5.6,0.5-11.3-0.1-16.9c-0.3-2.8-0.9-5.5-2-8.1c-0.5-1.2-1.3-2.3-2.3-3.3c-1-0.8-2.3-1.2-3.6-1
	c-2.7,0.3-5.2,1.7-6.8,3.9c-1.4,2.4-2,5.2-1.6,7.9L242.2,156.6z"/>
<path class="st11" d="M257.7,189.7c-1.1,2.5-2.6,4.9-4.5,6.9c-0.9,1-2,1.9-3.1,2.6c-1.2,0.7-2.4,1.3-3.7,1.6
	c1.3-0.4,2.5-1.1,3.6-1.9c1.1-0.8,2.1-1.7,2.9-2.8c0.8-1,1.6-2.2,2.3-3.3c0.7-1.2,1.2-2.4,1.7-3.6L257.7,189.7z"/>
<path class="st11" d="M253.2,212.6c0,1.3,0.1,2.7,0.3,4c0.2,1.3,0.6,2.6,1.1,3.9c1,2.5,2.6,4.8,4.7,6.5c-1.1-0.8-2.1-1.8-3-2.8
	c-0.9-1.1-1.6-2.2-2.2-3.5c-0.6-1.2-1.1-2.6-1.4-3.9c-0.3-1.4-0.5-2.7-0.6-4.1L253.2,212.6z"/>
<path class="st11" d="M255.4,234.3c0.2,1.1,0.3,2.2,0.4,3.3c0,1.1-0.1,2.2-0.3,3.3c-0.2,1.1-0.5,2.2-1,3.2c-0.5,1-1.1,1.9-1.8,2.8
	c0.7-0.8,1.3-1.8,1.7-2.8c0.4-1,0.7-2.1,0.8-3.1c0.1-1.1,0.2-2.2,0.1-3.3c-0.1-1.1-0.2-2.2-0.5-3.2L255.4,234.3z"/>
<path class="st9" d="M243,192c-4.4,1.6-9.2-2-8.6-4.6c0.4-2.1,2.8-0.2,6.3,1.4C243.5,190.1,247.2,190.5,243,192z"/>
<path class="st9" d="M234.3,239.5c-4.3-1.8-5.5-7.6-3.3-9.2c1.7-1.3,2.2,1.7,3.8,5.2C236,238.5,238.5,241.2,234.3,239.5z"/>
<path class="st9" d="M224,218.6c4.7,0.2,8.1-4.6,6.8-7c-1-1.9-2.7,0.7-5.6,3.2C222.9,216.9,219.5,218.4,224,218.6z"/>
<path class="st9" d="M219.9,246.8c4.7,0.2,8.1-4.6,6.8-7c-1.1-1.9-2.7,0.7-5.6,3.2C218.8,245.2,215.4,246.6,219.9,246.8z"/>
<path class="st11" d="M221.5,245.4c0.9-0.8,1.7-1.7,2.3-2.8c0.6-1,1.2-2.1,1.7-3.2c1-2.2,1.9-4.5,2.6-6.8c1.5-4.6,2.6-9.4,3.3-14.2
	c0.8-4.8,1.2-9.6,1.3-14.5c0.1-4.8-0.5-9.7-1.6-14.4c-3-9.2-6.5-18.5-7.5-28.3c-0.3-2.5-0.2-5,0.3-7.5c0.3-1.3,0.8-2.5,1.5-3.5
	c0.8-1.1,1.9-1.9,3.2-2.3c1.2-0.4,2.5-0.5,3.8-0.4c1.3,0.2,2.5,0.8,3.4,1.8c0.8,1,1.4,2.2,1.6,3.4c0.3,1.2,0.4,2.5,0.4,3.7h-0.6
	c-0.1-2.4-0.4-4.9-2-6.6c-0.8-0.8-1.9-1.3-3-1.4c-1.2-0.1-2.3,0-3.4,0.4c-1.1,0.4-2,1.1-2.6,2c-0.6,1-1.1,2-1.3,3.1
	c-0.4,2.3-0.5,4.7-0.2,7.1c0.6,4.8,1.6,9.5,3,14.2c0.7,2.3,1.4,4.6,2.2,7s1.6,4.6,2.3,7c1.1,4.8,1.6,9.7,1.5,14.7
	c-0.1,4.9-0.6,9.8-1.5,14.6c-0.9,4.8-2.1,9.6-3.7,14.2c-0.8,2.3-1.8,4.6-2.9,6.8c-0.5,1.1-1.2,2.2-1.8,3.2
	C223.3,243.7,222.5,244.6,221.5,245.4z"/>
<path class="st11" d="M228.9,178.9c0.5,1.3,1.1,2.5,1.8,3.6c0.7,1.2,1.5,2.3,2.3,3.3c0.9,1,1.9,1.9,3,2.7c1.1,0.8,2.3,1.4,3.6,1.8
	c-1.3-0.4-2.6-0.9-3.7-1.7c-1.1-0.8-2.2-1.7-3.1-2.7c-1.8-2-3.3-4.4-4.4-6.9L228.9,178.9z"/>
<path class="st11" d="M233.8,202.1c-0.1,1.4-0.3,2.8-0.6,4.1c-0.3,1.3-0.8,2.7-1.4,3.9c-0.6,1.2-1.3,2.4-2.2,3.5
	c-0.9,1.1-1.8,2-2.9,2.8c2.1-1.8,3.7-4,4.7-6.5c0.5-1.2,0.9-2.5,1.1-3.9c0.2-1.3,0.4-2.7,0.3-4L233.8,202.1z"/>
<path class="st11" d="M231.1,223.9c-0.3,1.1-0.4,2.1-0.5,3.2c-0.1,1.1,0,2.2,0.1,3.3c0.1,1.1,0.4,2.1,0.8,3.1c0.4,1,1,2,1.7,2.8
	c-0.7-0.8-1.3-1.7-1.8-2.8c-0.5-1-0.8-2.1-1-3.2c-0.2-1.1-0.3-2.2-0.3-3.3c0-1.1,0.1-2.2,0.4-3.3L231.1,223.9z"/>
<path class="st11" d="M260.6,165.9c0.3,1.3,0.8,2.6,1.3,3.9c0.5,1.3,1.1,2.5,1.8,3.7c0.7,1.2,1.5,2.3,2.5,3.3c1,1,2.1,1.8,3.3,2.4
	c-1.3-0.5-2.5-1.3-3.5-2.2c-1-1-1.9-2-2.7-3.2c-0.8-1.2-1.5-2.4-2.1-3.6c-0.6-1.3-1.1-2.6-1.5-3.9L260.6,165.9z"/>
<path class="st11" d="M238.9,156.5c0.1-3.5-0.3-6.9-1.3-10.2c-0.5-1.6-1.2-3.2-2.3-4.6c-1-1.4-2.4-2.4-4-3c-1.6-0.5-3.3-0.6-5-0.3
	c-1.7,0.2-3.3,0.8-4.7,1.7c-1.4,0.9-2.6,2.2-3.5,3.7c-0.9,1.5-1.5,3.1-1.9,4.8c-0.4,1.7-0.7,3.4-0.8,5.1c-0.1,1.7-0.2,3.4-0.1,5.2
	c0.1,3.5,0.4,7,0.6,10.5s0.3,7,0.3,10.5c0,3.5-0.5,7-1.4,10.4c0.7-3.4,1-6.9,0.9-10.4c-0.1-3.5-0.3-7-0.6-10.5s-0.6-7-0.8-10.5
	c-0.2-3.5,0.2-7.1,1.1-10.5c0.5-1.7,1.2-3.4,2.1-4.9c0.9-1.5,2.2-2.9,3.7-3.9c1.5-1,3.2-1.6,5-1.8c1.8-0.3,3.6-0.2,5.3,0.3
	c1.7,0.6,3.2,1.7,4.3,3.2c1.1,1.4,1.9,3.1,2.4,4.8c1,3.4,1.5,6.9,1.4,10.5L238.9,156.5z"/>
<path class="st11" d="M215.6,162.2c0.8,2.3,1.7,4.6,2.9,6.7c0.6,1.1,1.2,2.1,1.9,3.1c0.7,1,1.6,1.9,2.5,2.7c-1-0.7-1.9-1.6-2.7-2.5
	c-0.8-0.9-1.5-2-2.1-3c-1.3-2.1-2.4-4.4-3.4-6.7L215.6,162.2z"/>
<polygon class="st6" points="246.1,174.7 230.9,174.7 226.2,155.8 250.8,155.8 "/>
<path class="st11" d="M215.9,149.9c-0.9,0.9-1.7,1.8-2.4,2.9c-0.7,1-1.4,2.1-2,3.2c-0.6,1.1-1.1,2.3-1.5,3.5
	c-0.4,1.2-0.8,2.4-1.1,3.7c0.2-1.3,0.5-2.5,0.9-3.7c0.4-1.2,0.8-2.4,1.3-3.6c0.5-1.2,1.1-2.3,1.8-3.4c0.7-1.1,1.4-2.2,2.3-3.1
	L215.9,149.9z"/>
<rect x="128" y="471.6" class="st1" width="83" height="7.6"/>
<rect x="128" y="442.6" class="st1" width="83" height="7.6"/>
<rect x="184.8" y="423.6" class="st9" width="5" height="19"/>
<rect x="189.8" y="423.6" class="st5" width="11.9" height="19"/>
<rect x="184.8" y="426.7" class="st10" width="5" height="1.5"/>
</svg>
