<svg width="416" height="211" viewBox="0 0 416 211" fill="none" xmlns="http://www.w3.org/2000/svg">
<path d="M337.061 210.02C337.061 210.02 377.383 209.062 394.613 184.661C425.828 140.459 411.761 101.696 356.189 104.576C294.022 107.803 284.869 -7.95086 177.225 58.0209C153.851 72.3465 69.6354 37.6626 73.9397 79.6553C75.3283 93.1913 62.5596 95.5808 20.3628 111.308C-19.0305 125.989 4.83008 210.326 40.3683 210.641C75.9066 210.955 337.061 210.02 337.061 210.02Z" fill="#DAECDB"/>
<path d="M40.3476 208.744C40.4674 210.226 42.5597 210.226 44.9326 209.934C47.3056 209.642 46.6786 210.247 50.0042 210.267C53.3297 210.288 54.4675 209.182 54.6247 208.705C54.7651 208.284 53.1612 207.94 51.4433 207.535L50.7939 207.38C48.8503 206.916 47.1248 205.799 45.9057 204.216C44.4629 202.367 43.1454 193.953 43.1454 193.953L37.9485 194.924C37.9485 194.924 40.9727 202.135 41.2833 204.5C41.4218 205.563 40.6677 206.271 40.4917 207.201C40.3745 207.706 40.326 208.226 40.3476 208.744Z" fill="#EA8888"/>
<path d="M44.7626 210.159C47.1355 209.867 46.6789 210.25 50.0025 210.271C53.3262 210.292 54.4659 209.186 54.6231 208.709C54.7634 208.288 53.1596 207.943 51.4417 207.539L51.4211 207.571C49.9111 208.308 48.2297 208.622 46.5554 208.48C44.3228 208.274 42.0378 207.358 40.4976 207.204C40.3798 207.71 40.3307 208.229 40.3516 208.748C40.4677 210.23 42.3896 210.452 44.7626 210.159Z" fill="#303030"/>
<path d="M44.9928 199.937C44.9928 199.937 43.6323 200.837 42.3522 201.07C40.4321 201.419 39.5451 201.031 39.5451 201.031C39.5451 201.031 30.3134 177.851 30.8355 170.011C30.8486 169.824 30.8542 169.622 30.858 169.41C30.8729 168.052 30.6708 166.241 30.3396 164.156C30.2161 163.391 30.072 162.592 29.9129 161.763C29.5386 159.832 29.0839 157.747 28.5804 155.624C28.3596 154.688 28.1275 153.752 27.8936 152.804C25.5712 143.534 22.7341 134.401 22.7341 134.401C22.7341 134.401 39.3897 128.959 40.3404 134.045C40.7016 135.997 41.905 143.807 41.3641 155.751C40.9262 165.365 41.2088 172.863 42.0397 181.573C42.6228 187.752 43.6092 193.886 44.9928 199.937Z" fill="#404355"/>
<path d="M30.8584 169.417C30.8734 168.059 30.6712 166.248 30.34 164.163C30.2165 163.398 30.0724 162.599 29.9133 161.77C29.539 159.839 29.0843 157.754 28.5809 155.631C28.36 154.695 28.128 153.76 27.894 152.811C28.2215 149.982 28.4873 148.041 28.4873 148.041C28.4873 148.041 35.4059 157.436 30.8584 169.417Z" fill="#34353C"/>
<path d="M19.3263 208.743C19.4461 210.225 21.5402 210.225 23.9131 209.933C26.2861 209.641 25.6592 210.246 28.9847 210.266C32.3102 210.287 33.448 209.181 33.6052 208.704C33.7456 208.283 32.1417 207.939 30.4238 207.534L29.7744 207.379C27.8394 206.902 26.5481 205.465 24.8863 204.215C23.3124 203.031 24.4128 197.292 24.4128 197.292L19.5265 195.546C19.5265 195.546 20.2639 201.324 20.2639 204.503C20.2639 205.573 19.6482 206.273 19.4704 207.203C19.3544 207.708 19.306 208.226 19.3263 208.743Z" fill="#EA8888"/>
<path d="M23.6531 210.176C26.0261 209.882 25.6593 210.25 28.9848 210.271C32.3103 210.292 33.4481 209.186 33.6053 208.709C33.7457 208.288 32.1419 207.943 30.4239 207.539L30.4033 207.571C28.8932 208.308 27.2119 208.622 25.5376 208.48C23.3032 208.274 21.02 207.358 19.478 207.204C19.361 207.71 19.3119 208.229 19.332 208.748C19.4462 210.23 21.2802 210.469 23.6531 210.176Z" fill="#303030"/>
<path d="M32.7728 132.588C32.7728 132.588 27.3457 159.602 26.4362 174.303C25.5267 189.005 24.3777 201.179 24.3777 201.179C23.5584 201.447 22.6974 201.565 21.8363 201.527C20.9594 201.475 20.0944 201.299 19.2668 201.005C19.2668 201.005 13.894 178.884 15.6737 170.03C17.4534 161.175 15.9713 153.002 15.1123 145.663C13.8884 135.132 18.6006 130.237 21.8905 126.901C25.2254 123.531 32.7728 132.588 32.7728 132.588Z" fill="#404354"/>
<path d="M36.6144 83.1164C37.1533 78.7192 35.7797 71.6817 26.999 72.8063C18.2183 73.9309 15.4542 82.5569 17.2246 86.3928C18.995 90.2287 14.6757 91.1549 13.3189 95.279C12.1549 98.823 11.7488 103.222 9.86243 105.196C3.78594 111.558 15.6975 121.352 22.88 119.286C35.9594 115.527 37.6455 114.966 37.1814 104.691C36.9419 99.4255 32.8453 97.3934 35.4466 95.8628C41.729 92.1822 35.3961 93.0691 36.6144 83.1164Z" fill="#3E3E3E"/>
<path d="M33.9569 97.2384L31.3593 101.134L26.1194 100.876L23.7034 94.63C23.7034 94.63 24.4519 94.4877 24.7963 86.7L31.3257 88.6909C31.127 90.1014 31.1662 91.5352 31.4417 92.9328C31.771 94.4746 32.4784 96.1213 33.9569 97.2384Z" fill="#EB8D8D"/>
<path d="M34.6851 94.492C34.3482 94.492 28.1969 92.4337 19.4124 96.0114C19.4124 96.0114 23.5819 119.867 21.791 124.419C20.702 127.201 19.8744 130.078 19.3188 133.014L38.7517 133.255C38.7517 133.255 38.4803 117.627 39.3767 112.096C40.2731 106.565 34.6851 94.492 34.6851 94.492Z" fill="#EB8D8D"/>
<path d="M66.9598 110.543C66.9017 109.864 66.6884 109.71 66.6884 109.71C60.4753 110.622 56.3582 110.571 54.337 110.964C52.752 111.271 52.1044 111.316 51.8312 110.93C43.2489 98.8632 37.1743 95.0741 37.1743 95.0741C37.1743 95.0741 36.5249 94.6886 33.9929 94.3406C33.9929 94.3406 33.6298 98.9287 31.2718 99.3179C27.1921 99.9896 24.1417 96.251 23.1817 94.7466C23.1817 94.7466 18.2617 95.9329 16.8862 97.4991C15.8981 98.6218 16.0272 101.32 16.3248 103.013C16.3888 103.431 16.4883 103.842 16.6223 104.243C16.9124 105.008 18.0091 110.635 18.5087 112.874C18.52 112.931 18.5331 112.983 18.5424 113.032C18.578 113.181 18.6079 113.314 18.636 113.423C18.6369 113.426 18.6369 113.429 18.636 113.432C18.6659 113.552 18.6903 113.645 18.709 113.705C18.7277 113.765 18.7333 113.778 18.7445 113.816C19.4669 116.119 19.9029 118.467 19.6466 121.347C19.6026 121.754 19.5282 122.157 19.4239 122.552C18.7708 125.898 16.0553 132.496 15.4939 135.523C15.8177 136.208 16.5531 136.749 17.4476 137.179C18.6154 137.74 20.0489 138.115 21.1905 138.38C22.4495 138.65 23.722 138.853 25.0026 138.987C25.8353 139.08 26.7261 139.159 27.6338 139.211C27.761 139.211 27.8883 139.226 28.0081 139.234C33.8619 139.524 40.4174 139.38 41.2708 136.597C41.6807 135.261 40.0488 127.241 39.8298 124.846C39.4555 120.657 40.0694 114.918 40.3501 110.476C45.154 115.769 50.1133 117.672 50.1133 117.672C51.4557 117.585 52.7885 117.385 54.0975 117.075C55.6339 116.731 57.2415 116.276 58.776 115.788C61.652 114.851 64.4707 113.747 67.218 112.482C67.218 112.482 67.0889 112.044 66.9598 110.543Z" fill="#706E96"/>
<path d="M32.1849 130.269C31.077 134.03 30.4314 137.125 27.6467 139.217C26.7391 139.164 25.8483 139.086 25.0155 138.992C23.7349 138.858 22.4624 138.656 21.2034 138.386C20.06 138.124 18.6265 137.748 17.4606 137.185C16.566 136.754 15.8306 136.214 15.5068 135.529C16.0683 132.501 18.7818 125.903 19.4368 122.558C19.496 122.269 19.5391 121.976 19.5659 121.682C19.8073 118.688 19.4181 116.224 18.7575 113.823C18.7219 113.694 18.6845 113.567 18.649 113.449C18.6498 113.446 18.6498 113.443 18.649 113.44C18.6246 113.357 18.5947 113.223 18.5554 113.049C18.5554 113 18.5329 112.947 18.5217 112.891C18.0744 110.769 16.9067 104.11 16.6072 103.242C16.4772 102.807 16.3796 102.364 16.3153 101.915L18.6564 99.6697C18.6564 99.6697 32.0801 105.401 35.037 113.307C37.9938 121.212 33.77 124.872 32.1849 130.269Z" fill="#6C6A95"/>
<path d="M58.7961 115.794C55.8243 116.73 52.5905 117.562 50.1277 117.678C50.1277 117.678 45.1983 115.856 40.3645 110.482C40.1605 109.569 39.8686 107.93 40.9746 108.373C42.526 108.992 48.2731 116.361 50.4383 116.516C51.9935 116.627 56.4119 116.101 58.7961 115.794Z" fill="#060632"/>
<path d="M48.1928 113.689C48.1928 113.689 41.5773 117.012 35.8414 118.388C34.3342 118.772 32.7952 119.02 31.2434 119.127C31.2434 119.127 25.0677 117.231 20.3648 110.636C11.2697 97.8966 18.2913 96.5232 18.2913 96.5232C18.2913 96.5232 24.3659 100.312 32.9482 112.381C33.2495 112.802 34.0037 112.707 35.9556 112.314C38.0404 111.891 42.1912 111.94 47.9196 111.101C48.0127 111.39 48.065 111.689 48.0749 111.992C48.2022 113.502 48.1928 113.689 48.1928 113.689Z" fill="#8381AA"/>
<path d="M67.2385 112.487C64.4912 113.752 61.6724 114.856 58.7965 115.793C57.2563 116.281 55.6488 116.729 54.1179 117.08C53.5004 114.337 53.9308 112.2 54.3463 110.964C56.3637 110.571 60.6754 110.544 66.8848 109.631L67.2385 112.487Z" fill="#BED2FA"/>
<path d="M65.3308 110.02C66.3251 109.813 67.2917 109.49 68.2109 109.058C69.5209 108.403 73.013 107.967 73.7559 108.667C74.4989 109.367 72.9699 112.201 69.7829 112.289C66.5959 112.377 65.6789 112.899 65.6789 112.899L65.3308 110.02Z" fill="#EA8888"/>
<path d="M70.9963 100.353L53.2291 103.807C52.841 103.893 52.4922 104.105 52.2368 104.41C51.9813 104.714 51.8335 105.094 51.8162 105.491V117.768C51.8098 117.944 51.8446 118.119 51.9178 118.279C51.9909 118.44 52.1004 118.581 52.2375 118.691C52.3746 118.802 52.5356 118.879 52.7077 118.917C52.8798 118.954 53.0583 118.951 53.2291 118.908L70.9963 115.455C71.3846 115.369 71.7336 115.158 71.9894 114.853C72.2451 114.549 72.3934 114.168 72.4111 113.771V101.495C72.4178 101.318 72.3832 101.143 72.3101 100.982C72.237 100.821 72.1274 100.68 71.99 100.569C71.8526 100.458 71.6912 100.381 71.5187 100.344C71.3462 100.306 71.1673 100.309 70.9963 100.353Z" fill="#404040"/>
<path d="M71.7055 100.353L53.9382 103.807C53.5498 103.893 53.2006 104.104 52.9448 104.409C52.689 104.713 52.5409 105.094 52.5235 105.491V117.768C52.5171 117.944 52.5518 118.119 52.6251 118.28C52.6983 118.44 52.808 118.581 52.9453 118.692C53.0827 118.802 53.2439 118.879 53.4163 118.917C53.5887 118.954 53.7674 118.951 53.9382 118.907L71.7055 115.455C72.0934 115.368 72.442 115.157 72.6974 114.852C72.9528 114.548 73.1008 114.168 73.1184 113.771V101.494C73.125 101.318 73.0904 101.143 73.0174 100.982C72.9444 100.822 72.835 100.68 72.6978 100.57C72.5607 100.459 72.3996 100.381 72.2273 100.344C72.055 100.306 71.8764 100.309 71.7055 100.353Z" fill="#707070"/>
<path d="M54.2318 104.765C54.0726 104.801 53.9297 104.889 53.825 105.014C53.7202 105.14 53.6593 105.296 53.6516 105.459C53.6491 105.531 53.6635 105.603 53.6935 105.669C53.7236 105.735 53.7686 105.792 53.8248 105.838C53.8811 105.883 53.9472 105.915 54.0178 105.93C54.0885 105.946 54.1617 105.944 54.2318 105.927C54.3914 105.891 54.5347 105.803 54.6398 105.678C54.7449 105.552 54.806 105.396 54.8138 105.233C54.8164 105.16 54.802 105.088 54.7719 105.022C54.7417 104.956 54.6966 104.898 54.6401 104.853C54.5835 104.807 54.5172 104.776 54.4463 104.76C54.3755 104.745 54.302 104.747 54.2318 104.765Z" fill="#404040"/>
<path d="M56.2138 109.611C55.4222 108.862 51.6925 109.33 50.2945 110.03C49.5421 110.39 48.7561 110.675 47.9477 110.881C42.2193 111.723 38.0405 111.905 35.9557 112.328C36.4129 113.279 36.6408 114.323 36.6209 115.378C36.6011 116.433 36.3342 117.469 35.8416 118.402C41.3211 117.092 47.7419 114.158 48.3071 113.896C48.9508 113.733 50.0905 113.538 51.975 113.488C55.3754 113.385 57.0054 110.356 56.2138 109.611Z" fill="#EA8888"/>
<path d="M31.4496 92.9328C28.751 92.7139 24.8042 86.7 24.8042 86.7L31.3336 88.6909C31.1349 90.1014 31.1741 91.5352 31.4496 92.9328Z" fill="#FA7269"/>
<path d="M33.0439 89.1335C33.0439 89.1335 25.2251 90.7034 24.3212 85.8197C23.4173 80.9359 21.8004 77.8485 26.7541 76.6397C31.7077 75.431 33.0252 77.115 33.7232 78.6718C34.4213 80.2286 35.0557 88.6002 33.0439 89.1335Z" fill="#EB8D8D"/>
<path d="M33.824 75.766C29.967 71.9638 26.4113 73.8668 26.9784 74.6302C25.6422 74.6732 23.9729 75.04 22.7808 76.3816C20.4677 78.9825 24.7832 87.1128 24.7832 87.1128C24.7832 87.1128 24.19 82.1167 26.7613 79.3063C27.5458 78.4846 28.2053 77.5521 28.7188 76.5388C29.2383 77.0024 29.8383 77.3671 30.4891 77.6147C32.9781 78.4867 34.3443 82.4797 34.3443 82.4797C35.2351 80.6217 35.4858 77.4033 33.824 75.766Z" fill="#303030"/>
<path d="M30.6077 86.7308C30.6077 86.7308 30.8173 87.3108 32.2919 87.047C32.2919 87.047 33.5271 86.8262 33.4148 86.175C33.4129 86.1825 32.1516 85.8494 30.6077 86.7308Z" fill="white"/>
<path d="M185.604 6.90698H89.5143C86.489 6.90698 84.0366 9.35907 84.0366 12.3839V204.515C84.0366 207.54 86.489 209.992 89.5143 209.992H185.604C188.629 209.992 191.082 207.54 191.082 204.515V12.3839C191.082 9.35907 188.629 6.90698 185.604 6.90698Z" fill="#3F3F3F"/>
<path d="M195.98 6.90698H99.8905C96.8653 6.90698 94.4128 9.35907 94.4128 12.3839V204.515C94.4128 207.54 96.8653 209.992 99.8905 209.992H195.98C199.006 209.992 201.458 207.54 201.458 204.515V12.3839C201.458 9.35907 199.006 6.90698 195.98 6.90698Z" fill="#707070"/>
<path opacity="0.4" d="M163.622 14.5933H135.796C135.509 14.5943 135.234 14.7088 135.031 14.9118C134.829 15.1148 134.715 15.3898 134.714 15.6767C134.715 15.9632 134.829 16.2377 135.032 16.4403C135.235 16.643 135.509 16.7572 135.796 16.7582H163.622C163.909 16.7577 164.184 16.6437 164.387 16.441C164.59 16.2383 164.704 15.9635 164.705 15.6767C164.704 15.3896 164.59 15.1146 164.387 14.9117C164.184 14.7087 163.909 14.5942 163.622 14.5933Z" fill="#3F3F3F"/>
<path opacity="0.4" d="M130.853 14.5933C130.567 14.5943 130.292 14.7088 130.089 14.9118C129.886 15.1148 129.772 15.3898 129.772 15.6767C129.783 15.956 129.902 16.22 130.104 16.4135C130.306 16.607 130.575 16.7151 130.854 16.7151C131.134 16.7151 131.403 16.607 131.604 16.4135C131.806 16.22 131.925 15.956 131.937 15.6767C131.936 15.3896 131.822 15.1146 131.619 14.9117C131.416 14.7087 131.14 14.5942 130.853 14.5933Z" fill="#3F3F3F"/>
<path opacity="0.4" d="M149.261 191.789C147.879 191.788 146.529 192.197 145.38 192.965C144.231 193.732 143.336 194.822 142.807 196.098C142.278 197.374 142.139 198.778 142.409 200.133C142.678 201.488 143.343 202.732 144.32 203.709C145.296 204.686 146.541 205.351 147.896 205.621C149.25 205.89 150.655 205.752 151.931 205.224C153.207 204.695 154.298 203.8 155.066 202.652C155.833 201.503 156.243 200.153 156.243 198.772C156.243 197.855 156.063 196.947 155.712 196.1C155.361 195.252 154.847 194.482 154.199 193.834C153.55 193.186 152.78 192.671 151.933 192.32C151.086 191.969 150.178 191.789 149.261 191.789Z" fill="#C4C4C4"/>
<path d="M192.322 23.0103H103.323V187.274H192.322V23.0103Z" fill="#D9F7DB"/>
<path d="M192.322 23.0103H103.323V45.5896H192.322V23.0103Z" fill="white"/>
<path d="M115.027 41.2486C118.988 41.2486 122.199 38.0383 122.199 34.0783C122.199 30.1182 118.988 26.908 115.027 26.908C111.067 26.908 107.856 30.1182 107.856 34.0783C107.856 38.0383 111.067 41.2486 115.027 41.2486Z" fill="#45B34A"/>
<path d="M170.139 33.82H128.455C127.788 33.8155 127.151 33.5483 126.68 33.0763C126.21 32.6043 125.945 31.9658 125.943 31.2995C125.945 30.6317 126.211 29.9917 126.684 29.5195C127.156 29.0472 127.796 28.781 128.464 28.7791H170.148C170.816 28.781 171.456 29.0472 171.928 29.5195C172.4 29.9917 172.667 30.6317 172.669 31.2995C172.667 31.969 172.399 32.6104 171.925 33.0829C171.451 33.5554 170.808 33.8205 170.139 33.82Z" fill="#45B34A"/>
<path d="M152.401 39.8938H127.324C126.922 39.8928 126.537 39.7328 126.253 39.4489C125.969 39.1649 125.808 38.78 125.807 38.3781C125.808 37.976 125.968 37.5905 126.252 37.3062C126.537 37.0218 126.922 36.8616 127.324 36.8606H152.401C152.803 36.8621 153.188 37.0225 153.472 37.3068C153.756 37.5911 153.916 37.9763 153.917 38.3781C153.916 38.7798 153.756 39.1647 153.472 39.4488C153.188 39.7328 152.803 39.8928 152.401 39.8938Z" fill="#45B34A"/>
<path d="M180.027 106.635C180.027 106.635 179.251 102.879 180.493 101.871C181.736 100.862 185.501 97.3799 186.207 97.771C186.912 98.162 188.065 100.537 187.689 101.925C187.313 103.313 182.565 108.336 182.565 108.336L180.027 106.635Z" fill="#EB8D8D"/>
<path d="M155.295 157.661C154.898 165.376 153.552 176.384 152.553 187.512H135.675C135.312 184.529 134.784 181.622 134.202 178.783C133.257 174.184 132.169 169.76 131.406 165.481C129.871 156.874 130.16 150.137 131.488 144.898C132.63 140.407 134.539 137.039 136.728 134.537C141.513 129.057 154.836 139.777 154.836 139.777C154.836 139.777 155.688 149.989 155.295 157.661Z" fill="#4A58D1"/>
<path d="M147.629 160.109L147.618 160.27C147.498 161.853 146.435 174.813 143.1 187.507H135.674C135.311 184.524 134.784 181.616 134.202 178.778C135.467 171.336 136.668 165.427 136.668 165.427L147.629 160.109Z" fill="#3E4DCE"/>
<path d="M148.619 156.971C148.432 157.702 148.08 158.859 147.618 160.27C145.715 166.053 141.981 176.104 140.919 178.607C139.674 181.547 138.501 184.52 137.395 187.499H118.927C119.302 180.336 119.401 165.464 119.747 161.503C121.134 145.581 124.149 144.032 124.149 144.032L131.492 144.892L148.608 146.902C148.608 146.902 151.417 145.695 148.619 156.971Z" fill="#4A58D1"/>
<path d="M151.709 70.8072C152.536 64.0598 150.427 53.2651 136.96 54.9903C123.493 56.7155 119.249 69.9484 121.966 75.8332C124.684 81.718 118.055 83.1308 115.978 89.4628C114.191 94.8892 113.567 101.648 110.676 104.677C101.353 114.443 119.627 129.459 130.642 126.293C150.707 120.524 153.286 119.663 152.581 103.901C152.216 95.8229 145.93 92.6943 149.922 90.3572C159.557 84.7119 149.839 86.0722 151.709 70.8072Z" fill="#0B0754"/>
<path d="M147.635 92.4643L143.64 98.4521L135.626 98.061L131.919 88.4731C131.919 88.4731 132.609 88.3459 133.173 82.6482C133.311 81.1513 133.45 79.2801 133.577 76.9149C133.575 76.9135 133.574 76.9118 133.573 76.9099C133.572 76.9079 133.572 76.9058 133.572 76.9037C133.572 76.9016 133.572 76.8995 133.573 76.8976C133.574 76.8956 133.575 76.8939 133.577 76.8925C133.577 76.7054 133.588 76.4995 133.599 76.3049L134.636 76.6156L143.619 79.3549C143.619 79.3549 143.574 79.6543 143.516 80.1726C143.338 82.0637 143.427 83.9706 143.782 85.8367C144.261 88.2056 145.343 90.7391 147.635 92.4643Z" fill="#EB8D8D"/>
<path d="M147.661 88.1287C147.145 88.1287 138.399 86.3492 123.63 90.1271C123.63 90.1271 131.718 127.176 128.971 134.165C127.301 138.432 126.031 142.845 125.18 147.347L154.989 147.722C154.989 147.722 154.572 123.75 155.946 115.264C157.319 106.779 147.661 88.1287 147.661 88.1287Z" fill="#EB8D8D"/>
<path d="M179.87 102.894C179.87 102.894 170.35 115.805 168.667 115.683C166.861 115.534 162.325 99.4866 158.893 93.57C156.488 89.4403 148.203 88.2054 147.664 88.1287H147.638L147.657 88.211C147.586 88.9744 146.908 95.1025 143.519 95.662C137.261 96.6949 132.22 90.9635 130.747 88.6563C130.747 88.6563 123.562 90.4695 121.453 92.8739C119.455 95.1493 122.189 112.012 122.795 113.629C123.319 115.017 123.815 116.372 124.247 117.732C125.389 121.325 126.087 124.972 125.687 129.465C125.25 134.369 120.667 145.577 121.659 147.965C122.698 150.47 124.143 151.741 127.3 152.467C129.478 152.968 132.469 153.215 136.702 153.421C145.684 153.866 155.307 152.738 156.615 148.468C157.244 146.421 157.003 138.493 156.67 134.833C156.232 130.022 156.655 123.883 157.076 118.241C157.096 118.273 157.115 118.305 157.136 118.335C157.136 118.338 157.137 118.341 157.139 118.343C157.141 118.345 157.144 118.346 157.147 118.346C158.114 119.832 159.232 121.42 160.371 122.906C162.099 125.127 163.893 127.073 165.424 127.97C165.758 128.169 166.118 128.321 166.495 128.42C167.507 128.662 169.489 128.662 171.433 127.556C171.761 127.369 172.074 127.158 172.369 126.924C178.011 122.446 183.036 108.459 183.036 108.459C183.583 105.197 179.87 102.894 179.87 102.894Z" fill="#6C5252"/>
<path d="M121.656 147.961C122.694 150.467 124.139 151.737 127.296 152.463C131.518 151.651 134.303 143.884 135.736 140.061C137.389 135.657 130.59 114.988 128.215 115.203C126.448 115.356 124.762 117.808 124.704 119.282C125.848 122.873 126.084 124.968 125.683 129.461C125.247 134.365 120.664 145.574 121.656 147.961Z" fill="#5A4747"/>
<path d="M171.432 127.552C169.497 128.658 167.502 128.658 166.493 128.415C166.117 128.317 165.756 128.166 165.423 127.966C163.89 127.069 162.095 125.123 160.37 122.902C159.23 121.417 158.113 119.828 157.146 118.342C157.364 117.538 158.16 117.158 160.726 119.792C165.043 124.225 165.838 127.195 168.585 127.427C169.521 127.505 170.483 127.552 171.432 127.552Z" fill="#5A4747"/>
<path d="M143.778 85.8346C140.933 86.6168 133.99 77.4649 133.577 76.9129L133.554 76.8905H133.577L134.636 76.6135L143.619 79.3529C143.619 79.3529 143.574 79.6523 143.516 80.1706C143.336 82.0615 143.424 83.9684 143.778 85.8346Z" fill="#FA7269"/>
<path d="M146.233 80.0377C146.233 80.0377 134.237 82.4459 132.853 74.9538C131.468 67.4616 128.986 62.7276 136.586 60.8732C144.186 59.0189 146.207 61.6011 147.278 63.9887C148.348 66.3763 149.317 79.2182 146.233 80.0377Z" fill="#EB8D8D"/>
<path d="M147.429 59.5299C141.511 53.6994 136.335 57.118 137.621 58.6786C135.487 58.6411 132.559 59.0865 130.53 61.3693C126.974 65.3586 133.461 78.8872 133.461 78.8872C133.461 78.8872 132.691 70.1675 136.642 65.8564C138.513 63.7981 139.449 62.1477 139.923 60.9913C140.639 61.5833 141.449 62.0513 142.32 62.376C146.136 63.7157 148.234 69.8607 148.234 69.8607C149.594 66.9809 149.978 62.0448 147.429 59.5299Z" fill="#0B0754"/>
<path d="M133.348 136.031L136.022 137.318C137.205 137.666 137.667 137.988 138.377 137.907C140.093 137.72 143.553 137.823 145.947 141.167C145.947 141.167 147.157 143.15 145.439 143.356C143.721 143.562 144.332 143.253 141.919 143.59C139.507 143.927 137.076 141.652 136.32 140.828L133.513 139.803L133.348 136.031Z" fill="#EB8D8D"/>
<path d="M130.743 88.6526C130.743 88.6526 123.652 88.9333 120.364 91.9926C116.648 95.4524 109.982 116.432 109.982 129.603C109.982 129.603 109.847 136.859 135.098 141.749C135.098 141.749 136.309 140.746 136.764 139.779C137.568 138.065 137.566 136.886 137.566 136.886C137.566 136.886 122.76 128.49 122.221 125.846C121.515 122.322 131.653 108.584 130.743 88.6526Z" fill="#6A5555"/>
<path d="M210.301 88.8017C210.301 88.8017 189.391 84.6309 164.387 84.9677L162.941 78.1548L161.352 70.6888C161.352 70.6888 187.477 64.353 204.591 52.2522L210.301 88.8017Z" fill="#838383"/>
<path d="M210.301 88.8017C210.736 88.7569 211.156 88.6231 211.537 88.4085C211.918 88.194 212.25 87.9033 212.513 87.5546C212.777 87.206 212.966 86.8068 213.068 86.382C213.17 85.9572 213.184 85.5159 213.108 85.0856L207.475 53.8764C207.202 52.3645 206.105 51.8854 204.593 52.2522L210.301 88.8017Z" fill="#B0B0B0"/>
<path d="M186.025 85.707C200.377 86.8297 210.301 88.8094 210.301 88.8094C210.301 88.8094 186.513 77.3953 162.941 78.1625L164.387 84.9754C168.819 84.9155 173.121 84.9979 177.201 85.1625C177.193 85.2873 177.193 85.412 177.201 85.5368L177.817 107.022C177.854 108.19 178.352 109.296 179.202 110.098C180.051 110.901 181.184 111.334 182.353 111.305C183.521 111.267 184.627 110.77 185.43 109.92C186.233 109.07 186.666 107.937 186.637 106.769L186.025 85.707Z" fill="#636363"/>
<path d="M171.274 84.9939L164.511 85.0463C164.61 85.0669 158.204 85.2334 157.119 79.3355C156.997 78.9247 156.934 78.4989 156.931 78.0706C156.533 70.8834 160.51 70.2472 160.51 70.2472L169.526 68.3555L170.574 78.4092V78.4429L171.274 84.9939Z" fill="#ADADAD"/>
<path d="M171.274 84.9941L164.511 85.0465C164.61 85.0671 158.204 85.2336 157.119 79.3357C161.298 77.2362 170.576 78.4001 170.576 78.4001V78.4338L171.274 84.9941Z" fill="#777777"/>
<path d="M192.322 161.365H103.323V187.287H192.322V161.365Z" fill="white"/>
<path d="M185.557 168.929H109.789C109.382 168.928 108.993 168.765 108.706 168.478C108.419 168.191 108.257 167.801 108.256 167.395C108.258 166.989 108.42 166.6 108.707 166.313C108.994 166.026 109.383 165.864 109.789 165.862H185.557C185.963 165.864 186.352 166.026 186.639 166.313C186.926 166.6 187.088 166.989 187.09 167.395C187.089 167.801 186.927 168.191 186.64 168.478C186.353 168.765 185.963 168.928 185.557 168.929Z" fill="#45B34A"/>
<path d="M185.557 174.548H109.789C109.383 174.547 108.993 174.385 108.706 174.098C108.419 173.811 108.257 173.422 108.256 173.016C108.258 172.61 108.42 172.221 108.707 171.934C108.994 171.647 109.383 171.485 109.789 171.483H185.557C185.963 171.485 186.352 171.647 186.639 171.934C186.926 172.221 187.088 172.61 187.09 173.016C187.089 173.422 186.927 173.811 186.64 174.098C186.352 174.385 185.963 174.547 185.557 174.548Z" fill="#45B34A"/>
<path d="M185.557 180.426H109.789C109.382 180.424 108.993 180.262 108.706 179.975C108.419 179.687 108.257 179.298 108.256 178.891C108.258 178.485 108.42 178.096 108.707 177.809C108.994 177.522 109.383 177.36 109.789 177.359H185.557C185.963 177.36 186.352 177.522 186.639 177.809C186.926 178.096 187.088 178.485 187.09 178.891C187.089 179.298 186.927 179.687 186.64 179.975C186.353 180.262 185.963 180.424 185.557 180.426Z" fill="#45B34A"/>
<path d="M399.623 140.605H284.467C282.261 140.605 280.473 142.393 280.473 144.598V206.48C280.473 208.685 282.261 210.473 284.467 210.473H399.623C401.828 210.473 403.616 208.685 403.616 206.48V144.598C403.616 142.393 401.828 140.605 399.623 140.605Z" fill="#404040"/>
<path d="M393.853 140.605H278.697C276.492 140.605 274.704 142.393 274.704 144.598V206.48C274.704 208.685 276.492 210.473 278.697 210.473H393.853C396.059 210.473 397.847 208.685 397.847 206.48V144.598C397.847 142.393 396.059 140.605 393.853 140.605Z" fill="#535353"/>
<path opacity="0.99" d="M384.227 143.852H278.233V207.221H384.227V143.852Z" fill="#E7F0E7"/>
<path d="M391.417 183.369C390.672 183.369 389.958 183.074 389.432 182.547C388.905 182.021 388.609 181.307 388.609 180.563V170.513C388.609 169.768 388.905 169.054 389.432 168.528C389.958 168.002 390.672 167.706 391.417 167.706C392.161 167.706 392.875 168.002 393.401 168.528C393.928 169.054 394.224 169.768 394.224 170.513V180.563C394.224 181.307 393.928 182.021 393.401 182.547C392.875 183.074 392.161 183.369 391.417 183.369Z" fill="#404040"/>
<path d="M384.226 143.852V207.221H310.882L358.919 143.852H384.226Z" fill="white"/>
<path d="M345.943 143.852L293.502 207.221H286.458L340.121 143.852H345.943Z" fill="white"/>
<path d="M294.226 143.852L278.233 161.501V143.852H294.226Z" fill="white"/>
<path d="M332.772 174.501C332.777 174.735 332.715 174.966 332.592 175.165C332.469 175.364 332.291 175.524 332.079 175.624C331.273 176.069 329.856 176.114 328.316 176.047C328.129 176.047 327.941 176.034 327.784 176.034H327.565C326.04 176.071 326.201 176.528 323.304 176.782C320.001 177.063 318.785 176.052 318.59 175.592C318.425 175.201 319.844 174.759 321.427 174.254L321.657 174.179L322.292 173.973C324.176 173.348 326.034 172.604 326.495 170.697C326.987 168.672 325.51 163.025 325.51 163.025L330.75 162.464C330.75 162.464 331.254 168.367 331.583 170.207C331.759 171.189 332.206 171.971 332.467 172.811C332.485 172.871 332.502 172.929 332.519 172.999C332.669 173.486 332.754 173.991 332.772 174.501Z" fill="#ED9696"/>
<path d="M332.772 174.502C332.777 174.736 332.715 174.966 332.592 175.166C332.469 175.365 332.291 175.524 332.079 175.624C331.22 176.023 329.833 176.081 328.319 176.038C328.121 176.038 327.945 176.038 327.784 176.038H327.565C326.04 176.075 326.201 176.532 323.304 176.786C320.001 177.067 318.785 176.057 318.59 175.596C318.425 175.205 319.844 174.764 321.427 174.258C323.049 174.845 324.797 174.993 326.495 174.689C328.697 174.275 330.885 173.179 332.461 172.818C332.48 172.878 332.496 172.936 332.513 173.005C332.665 173.49 332.751 173.994 332.772 174.502Z" fill="#9E332E"/>
<path d="M298.813 167.824C298.521 169.278 296.449 169.036 294.134 168.469C291.819 167.902 292.372 168.576 289.082 168.211C285.792 167.846 284.79 166.619 284.689 166.128C284.6 165.694 286.228 165.541 287.974 165.341L288.634 165.262C290.605 165.013 292.048 163.743 293.839 162.699C295.534 161.709 298.066 157.678 298.066 157.678L302.584 158.036C302.584 158.036 300.213 161.636 299.296 163.202C298.757 164.123 298.785 165.339 298.852 166.28C298.908 166.794 298.895 167.313 298.813 167.824Z" fill="#ED9696"/>
<path d="M294.134 168.469C291.821 167.908 292.372 168.576 289.082 168.211C285.792 167.846 284.79 166.618 284.689 166.128C284.6 165.694 286.228 165.541 287.974 165.34L287.989 165.374C289.4 166.279 291.031 166.785 292.707 166.839C294.952 166.893 297.308 166.253 298.852 166.278C298.91 166.792 298.899 167.311 298.819 167.822C298.521 169.277 296.449 169.036 294.134 168.469Z" fill="#9E332E"/>
<path d="M308.864 101.478C308.864 101.478 307.788 98.841 306.604 98.7325C305.419 98.624 301.654 98.0327 301.384 98.5716C301.115 99.1105 301.384 101.047 302.191 101.753C302.997 102.458 308.004 103.581 308.004 103.581L308.864 101.478Z" fill="#ED9696"/>
<path d="M316.126 138.949L325.857 165.145C326.842 165.218 327.833 165.127 328.788 164.876C330.098 164.502 331.619 163.499 331.619 163.499C331.619 163.499 329.203 138.341 324.776 133.109C320.348 127.877 316.126 138.949 316.126 138.949Z" fill="#34353C"/>
<path d="M354.63 128.34C354.63 128.34 326.653 118.881 320.413 120.894C314.174 122.908 295.439 160.176 295.439 160.176C295.439 160.176 295.86 160.737 297.015 161.169C298.089 161.573 300.687 161.543 300.687 161.543C300.687 161.543 317.595 147.053 319.609 142.832C321.622 138.61 322.416 134.582 324.439 134.984C326.462 135.386 350.403 144.845 355.837 139.209C361.272 133.573 359.852 126.253 359.852 126.253L354.63 128.34Z" fill="#404354"/>
<path d="M337.541 84.337C337.093 83.4145 336.594 81.7753 336.35 78.8545C336.388 79.1445 336.891 82.8288 338.308 84.9133C344.126 88.7323 355.278 101.486 355.057 103.904C355.057 103.904 358.987 97.2424 359.054 97.2013C359.054 97.2013 366.301 87.9876 357.711 82.7109C353.347 80.0295 353.369 76.5866 353.551 73.5965C353.732 70.6064 352.36 57.7327 343.617 61.1008C343.617 61.1008 342.214 60.4777 341.585 60.5713C341.871 60.6279 342.137 60.7567 342.359 60.9455C341.345 60.8856 339.897 60.9605 338.688 61.6491C335.482 63.4622 332.613 79.8013 337.541 84.337Z" fill="#0B0754"/>
<path d="M338.652 85.1048C338.622 85.1179 341.459 86.5905 343.596 86.0067C345.604 85.4584 346.916 82.8556 346.888 82.85C346.039 82.6816 345.793 81.5121 345.812 76.488L345.427 76.5648L338.961 77.8446C338.961 77.8446 339.109 79.8786 339.112 81.7947C339.118 83.4058 339.021 84.9326 338.652 85.1048Z" fill="#ED9696"/>
<path d="M338.961 77.8473C338.961 77.8473 339.109 79.8813 339.113 81.7974C342.732 81.6963 344.643 78.3956 345.427 76.5581L338.961 77.8473Z" fill="#EA8888"/>
<path d="M346.095 75.8637C346.095 75.8637 347.99 72.8698 348.445 70.3063C348.771 68.4782 347.839 61.699 341.027 62.6776C339.655 62.8678 338.343 63.3633 337.189 64.1277C335.71 65.127 333.575 67.2825 335.963 73.1973L336.582 75.1957L346.095 75.8637Z" fill="#0B0754"/>
<path d="M337.753 79.6616C337.753 79.6616 346.313 79.8019 346.319 74.471C346.324 69.14 347.432 65.568 341.968 65.2517C336.503 64.9355 335.44 66.9695 335.004 68.7489C334.568 70.5284 335.526 79.4876 337.753 79.6616Z" fill="#ED9696"/>
<path d="M338.07 65.1227C338.07 65.1227 340.415 71.3761 344.01 72.3005C347.605 73.2248 349.167 72.2631 349.167 72.2631C347.393 70.7041 346.215 68.5768 345.836 66.2454C345.836 66.2454 339.846 62.1456 338.07 65.1227Z" fill="#0B0754"/>
<path d="M338.652 65.6295C338.652 65.6295 336.9 67.0254 336.474 68.3839C336.047 69.7424 335.856 72.536 335.04 72.4406C335.04 72.4406 333.275 68.1893 335.259 65.7848C337.364 63.2344 338.652 65.6295 338.652 65.6295Z" fill="#0B0754"/>
<path d="M357.711 108.128C358.557 104.59 355.684 97.7206 352.686 92.036C349.967 86.8828 347.143 82.7026 346.885 82.8523C339.712 87.1092 339.064 83.569 339.064 83.569C339.064 83.569 332.546 84.4353 330.703 87.6107C328.15 92.0023 325.371 105.181 322.639 104.986C321.387 104.897 308.771 100.157 308.771 100.157C308.771 100.157 306.67 102.125 307.072 104.541C307.072 104.541 313.3 108.71 318.568 111.371C321.355 112.778 323.872 113.764 325.055 113.485C327.454 112.924 331.202 107.357 333.227 104.084L333.24 104.062C335.827 118.691 332.305 122.025 334.09 123.565C335.961 125.193 338.652 122.789 344.557 125.348C348.431 127.032 353.805 129.465 357.423 129.878C359.32 130.101 360.735 129.772 361.197 128.49C362.543 124.765 356.101 114.877 357.711 108.128Z" fill="#706E96"/>
<path d="M339.658 76.4297C339.658 76.4297 339.497 77.1071 337.813 77.0023C337.813 77.0023 336.398 76.9144 336.441 76.1696C336.44 76.1696 337.811 75.6401 339.658 76.4297Z" fill="white"/>
<path d="M361.201 128.487C360.739 129.769 359.33 130.098 357.426 129.876C354.922 128.785 344.104 124.595 344.225 121.757C344.413 117.552 346.305 117.417 344.963 112.231C343.887 108.063 353.882 100.317 355.475 98.6328C358.469 104.319 358.557 104.589 357.711 108.127C356.101 114.876 362.543 124.764 361.201 128.487Z" fill="#615F84"/>
<path d="M333.231 104.082C331.206 107.354 327.457 112.917 325.058 113.482C323.875 113.761 321.358 112.775 318.572 111.368C320.604 111.892 322.58 111.879 324.499 111.693C326.58 111.491 327.182 108.943 330.47 105.118C332.602 102.648 333.126 103.262 333.231 104.082Z" fill="#615F84"/>
<path d="M340.201 111.644C339.93 111.477 339.406 111.543 339.024 111.623V111.062C339.024 110.942 339.017 110.822 339.002 110.703H333.296C333.281 110.822 333.273 110.942 333.273 111.062V112.185C333.273 112.769 333.45 113.341 333.782 113.822C334.115 114.303 334.586 114.672 335.134 114.878C335.681 115.085 336.278 115.119 336.846 114.977C337.413 114.835 337.924 114.524 338.309 114.084C338.309 114.084 339.668 113.749 340.095 113.244C340.521 112.738 340.654 111.924 340.201 111.644ZM339.9 112.68C339.754 113.055 339.107 113.253 338.789 113.332C338.918 113.031 338.995 112.711 339.017 112.385C339.096 112.262 339.205 112.162 339.334 112.094C339.464 112.026 339.608 111.993 339.754 111.997C339.958 112.035 340.082 112.209 339.9 112.68Z" fill="#AE5652"/>
<path d="M333.734 111.069V112.192C333.736 112.955 334.04 113.685 334.579 114.225C335.119 114.764 335.849 115.069 336.612 115.072C336.742 115.072 336.871 115.062 337 115.044C336.31 114.948 335.679 114.607 335.221 114.083C334.764 113.559 334.511 112.888 334.509 112.192V111.069C334.509 110.949 334.516 110.829 334.531 110.71H333.758C333.743 110.829 333.734 110.949 333.734 111.069Z" fill="#ED9696"/>
<path d="M337.32 114.819H334.969V115.171H337.32V114.819Z" fill="#AE5652"/>
<path d="M343.252 112.13C343.252 112.13 341.441 110.721 339.73 111.056C338.02 111.391 337.18 112.566 337.247 113.103C337.314 113.64 338.22 115.148 339.528 115.283C340.836 115.418 344.56 114.476 344.56 114.476L343.252 112.13Z" fill="#ED9696"/>
<path d="M346.888 82.8499C346.888 82.8499 353.865 83.2802 356.281 86.6465C359.68 91.388 367.839 112.469 363.975 115.171C359.622 118.206 342.749 115.081 342.749 115.081C342.749 115.081 342.234 112.676 342.951 111.514C343.668 110.352 355.302 108.474 355.834 107.937C356.365 107.4 349.123 97.4712 349.123 95.8601C349.123 94.249 346.888 82.8499 346.888 82.8499Z" fill="#6D6B9A"/>
<path d="M316.44 27.8118H306.131C299.049 27.8118 293.308 33.552 293.308 40.633V47.7023C293.308 54.7832 299.049 60.5235 306.131 60.5235H316.44C323.522 60.5235 329.263 54.7832 329.263 47.7023V40.633C329.263 33.552 323.522 27.8118 316.44 27.8118Z" fill="white"/>
<path d="M296.791 37.291L321.65 35.1448L308.665 43.5781L296.791 37.291Z" fill="#5DD362"/>
<path d="M309.518 56.9476L321.65 35.1448L308.64 43.5388L309.518 56.9476Z" fill="#45B34A"/>
<path d="M307.611 95.8054L303.316 94.6546C303.252 94.6338 303.184 94.6297 303.119 94.6428C303.053 94.6559 302.992 94.6858 302.942 94.7295L302.341 95.0925L302.82 104.561L306.937 105.665L307.24 105.64L307.936 105.216C307.987 105.18 308.028 105.133 308.056 105.077C308.083 105.022 308.097 104.961 308.095 104.899V96.4379C308.089 96.2955 308.04 96.1583 307.953 96.0452C307.866 95.932 307.747 95.8483 307.611 95.8054Z" fill="#A83F3F"/>
<path d="M306.946 105.663L302.653 104.512C302.516 104.471 302.395 104.39 302.307 104.278C302.218 104.166 302.167 104.029 302.159 103.887V95.4236C302.158 95.3636 302.171 95.3042 302.198 95.2505C302.225 95.1968 302.264 95.1502 302.312 95.1148C302.361 95.0794 302.417 95.0562 302.476 95.0471C302.536 95.038 302.596 95.0432 302.653 95.0624L306.946 96.2132C307.083 96.2538 307.204 96.3357 307.292 96.4475C307.38 96.5594 307.432 96.6958 307.44 96.8381V105.301C307.441 105.361 307.428 105.421 307.401 105.474C307.374 105.528 307.335 105.575 307.287 105.61C307.238 105.646 307.182 105.669 307.123 105.678C307.064 105.687 307.003 105.682 306.946 105.663Z" fill="#ED6966"/>
<path d="M303.78 96.3804L302.781 96.0811C302.706 96.0559 302.64 96.0084 302.592 95.9449C302.545 95.8813 302.518 95.8048 302.515 95.7255C302.515 95.6923 302.524 95.6596 302.54 95.6303C302.556 95.6011 302.578 95.5761 302.606 95.5577C302.634 95.5392 302.665 95.5278 302.698 95.5245C302.732 95.5211 302.765 95.5259 302.796 95.5384L303.797 95.8378C303.872 95.8628 303.938 95.9103 303.985 95.9739C304.032 96.0375 304.059 96.1141 304.061 96.1933C304.06 96.2264 304.051 96.2589 304.036 96.2879C304.02 96.3169 303.997 96.3416 303.969 96.36C303.942 96.3783 303.91 96.3898 303.877 96.3933C303.844 96.3969 303.811 96.3925 303.78 96.3804Z" fill="#A83F3F"/>
<path d="M325.379 77.8331C325.379 77.6969 325.42 77.5638 325.495 77.4505C325.571 77.3373 325.679 77.2491 325.805 77.1969C325.93 77.1448 326.069 77.1312 326.202 77.1578C326.336 77.1843 326.459 77.2499 326.555 77.3462C326.651 77.4425 326.717 77.5652 326.744 77.6988C326.77 77.8324 326.756 77.9708 326.704 78.0966C326.652 78.2225 326.564 78.33 326.451 78.4057C326.337 78.4813 326.204 78.5217 326.068 78.5217C325.886 78.5212 325.711 78.4485 325.582 78.3195C325.453 78.1905 325.38 78.0156 325.379 77.8331Z" fill="#DDE8FD"/>
<path d="M317.951 75.1431C317.951 74.884 318.028 74.6308 318.171 74.4154C318.315 74.2 318.52 74.0321 318.759 73.933C318.999 73.8338 319.262 73.8079 319.516 73.8584C319.77 73.909 320.004 74.0337 320.187 74.2169C320.37 74.4001 320.495 74.6335 320.545 74.8875C320.596 75.1416 320.57 75.405 320.471 75.6443C320.372 75.8837 320.204 76.0882 319.988 76.2321C319.773 76.3761 319.52 76.4529 319.261 76.4529C318.913 76.4529 318.58 76.3149 318.334 76.0692C318.089 75.8236 317.951 75.4905 317.951 75.1431Z" fill="#DDE8FD"/>
<path d="M310.704 68.4292C310.704 68.0192 310.826 67.6183 311.054 67.2774C311.282 66.9364 311.605 66.6707 311.984 66.5138C312.363 66.3569 312.78 66.3158 313.182 66.3958C313.585 66.4758 313.954 66.6732 314.244 66.9632C314.534 67.2531 314.732 67.6226 314.812 68.0247C314.892 68.4269 314.851 68.8438 314.694 69.2226C314.537 69.6014 314.271 69.9252 313.93 70.153C313.589 70.3809 313.188 70.5025 312.778 70.5025C312.228 70.5025 311.701 70.284 311.312 69.8952C310.923 69.5064 310.704 68.9791 310.704 68.4292Z" fill="#DDE8FD"/>
<path d="M245.287 32.1841H255.428C262.397 32.1841 268.045 26.536 268.045 19.5687V12.6154C268.045 5.64812 262.397 7.62939e-06 255.428 7.62939e-06H245.287C238.319 7.62939e-06 232.67 5.64812 232.67 12.6154V19.5687C232.67 26.536 238.319 32.1841 245.287 32.1841Z" fill="white"/>
<path d="M258.814 7.37622H241.898C240.627 7.38214 239.41 7.8902 238.512 8.78962C237.614 9.68905 237.109 10.9069 237.105 12.1776V16.3204C237.111 17.5124 237.56 18.6596 238.365 19.5388C239.17 20.418 240.273 20.9663 241.46 21.0769L239.413 27.0253L250.106 21.1218H258.814C260.086 21.1184 261.306 20.6114 262.205 19.7117C263.105 18.812 263.612 17.5927 263.616 16.3204V12.1776C263.612 10.9053 263.105 9.68603 262.205 8.78633C261.306 7.88664 260.086 7.37968 258.814 7.37622Z" fill="#45B34A"/>
<path d="M259.399 13.6039H240.814C240.543 13.6034 240.283 13.4955 240.091 13.3036C239.899 13.1118 239.791 12.8517 239.791 12.5804C239.791 12.3091 239.899 12.0491 240.091 11.8572C240.283 11.6654 240.543 11.5574 240.814 11.5569H259.399C259.671 11.5574 259.931 11.6654 260.123 11.8572C260.314 12.0491 260.422 12.3091 260.423 12.5804C260.422 12.8517 260.314 13.1118 260.123 13.3036C259.931 13.4955 259.671 13.6034 259.399 13.6039Z" fill="white"/>
<path d="M259.399 16.9195H240.814C240.543 16.9185 240.283 16.8101 240.091 16.618C239.899 16.4259 239.791 16.1656 239.791 15.8941C239.792 15.623 239.9 15.3632 240.091 15.1715C240.283 14.9797 240.543 14.8716 240.814 14.8706H259.399C259.67 14.8716 259.93 14.9797 260.122 15.1715C260.314 15.3632 260.422 15.623 260.423 15.8941C260.422 16.1656 260.314 16.4259 260.123 16.618C259.931 16.8101 259.671 16.9185 259.399 16.9195Z" fill="white"/>
<path d="M262.678 55.2241C262.579 55.1195 262.45 55.0467 262.31 55.0148C262.169 54.983 262.022 54.9936 261.887 55.0452C261.753 55.0968 261.636 55.1872 261.553 55.305C261.469 55.4227 261.423 55.5626 261.419 55.7068C261.415 55.851 261.454 55.9931 261.531 56.1152C261.608 56.2373 261.719 56.3339 261.851 56.3928C261.982 56.4517 262.129 56.4702 262.271 56.446C262.413 56.4219 262.545 56.3561 262.65 56.257C262.72 56.1912 262.776 56.1123 262.815 56.0246C262.855 55.937 262.876 55.8424 262.879 55.7464C262.882 55.6504 262.865 55.5548 262.831 55.4652C262.796 55.3756 262.744 55.2936 262.678 55.2241Z" fill="#DDE8FD"/>
<path d="M266.44 47.7352C266.251 47.5361 266.008 47.3974 265.74 47.3365C265.473 47.2757 265.193 47.2955 264.937 47.3935C264.681 47.4914 264.46 47.6631 264.301 47.8868C264.143 48.1104 264.054 48.3761 264.046 48.6502C264.039 48.9243 264.113 49.1944 264.259 49.4265C264.405 49.6587 264.616 49.8423 264.866 49.9542C265.117 50.0662 265.395 50.1014 265.665 50.0555C265.935 50.0095 266.186 49.8845 266.385 49.6961C266.652 49.4431 266.808 49.0945 266.818 48.7269C266.828 48.3592 266.692 48.0026 266.44 47.7352Z" fill="#DDE8FD"/>
<path d="M267.121 37.2646C266.821 36.9488 266.435 36.7288 266.01 36.6325C265.586 36.5361 265.143 36.5678 264.736 36.7235C264.33 36.8791 263.979 37.1518 263.727 37.5069C263.476 37.8621 263.335 38.2839 263.323 38.7189C263.312 39.1539 263.429 39.5826 263.661 39.9508C263.893 40.3191 264.229 40.6103 264.626 40.7877C265.024 40.9651 265.465 41.0207 265.894 40.9475C266.323 40.8743 266.72 40.6755 267.036 40.3763C267.246 40.1776 267.415 39.9394 267.533 39.6755C267.651 39.4115 267.715 39.1269 267.723 38.8379C267.731 38.5489 267.682 38.2612 267.579 37.9913C267.475 37.7213 267.319 37.4744 267.121 37.2646Z" fill="#DDE8FD"/>
<path d="M65.4756 18.1846H43.1065C37.1966 18.1846 32.4058 22.9748 32.4058 28.8839V47.3074C32.4058 53.2165 37.1966 58.0067 43.1065 58.0067H65.4756C71.3855 58.0067 76.1764 53.2165 76.1764 47.3074V28.8839C76.1764 22.9748 71.3855 18.1846 65.4756 18.1846Z" fill="white"/>
<path d="M65.922 37.77C64.7056 40.9734 54.2837 49.3861 54.2837 49.3861C54.2837 49.3861 50.8871 46.628 47.7337 43.6548C45.3776 41.4561 43.1787 39.1396 42.6566 37.77C41.4214 34.589 42.7333 30.0308 47.2883 29.258C51.8434 28.4852 54.2837 33.2286 54.2837 33.2286C54.2837 33.2286 56.7353 28.4815 61.2903 29.2524C62.0235 29.3711 62.7296 29.6202 63.375 29.9878C66.2121 31.5745 66.9251 35.1447 65.922 37.77Z" fill="#5DD362"/>
<path d="M65.9227 37.7691C64.7063 40.9725 54.2843 49.3853 54.2843 49.3853C54.2843 49.3853 50.8877 46.6272 47.7344 43.6539C60.1438 40.181 62.8087 33.0014 63.3682 29.9944C66.2128 31.5736 66.9258 35.1438 65.9227 37.7691Z" fill="#45B34A"/>
<path d="M52.2533 77.673C52.131 77.725 52.0269 77.8121 51.9542 77.9233C51.8814 78.0344 51.8433 78.1647 51.8445 78.2975C51.8458 78.4303 51.8864 78.5598 51.9612 78.6695C52.0361 78.7793 52.1418 78.8644 52.265 78.9141C52.3882 78.9638 52.5234 78.9758 52.6534 78.9487C52.7835 78.9216 52.9026 78.8566 52.9957 78.7618C53.0888 78.667 53.1517 78.5468 53.1764 78.4162C53.2012 78.2857 53.1866 78.1508 53.1347 78.0285C53.1002 77.9473 53.05 77.8737 52.9871 77.8118C52.9241 77.75 52.8495 77.7012 52.7677 77.6682C52.6858 77.6351 52.5983 77.6186 52.51 77.6194C52.4217 77.6202 52.3345 77.6385 52.2533 77.673Z" fill="#DDE8FD"/>
<path d="M57.1042 72.1157C56.8722 72.2143 56.6747 72.3795 56.5366 72.5904C56.3985 72.8012 56.3261 73.0483 56.3284 73.3003C56.3308 73.5524 56.4079 73.7981 56.5499 74.0063C56.6919 74.2146 56.8925 74.376 57.1263 74.4703C57.3601 74.5645 57.6166 74.5873 57.8634 74.5358C58.1101 74.4842 58.3361 74.3607 58.5126 74.1807C58.6891 74.0008 58.8083 73.7726 58.8551 73.5249C58.9019 73.2772 58.8741 73.0213 58.7754 72.7893C58.6431 72.4785 58.3927 72.2329 58.0793 72.1066C57.7659 71.9803 57.4152 71.9835 57.1042 72.1157Z" fill="#DDE8FD"/>
<path d="M62.7244 63.9936C62.5683 63.6252 62.3064 63.3114 61.9718 63.0919C61.6373 62.8724 61.2452 62.757 60.845 62.7603C60.4449 62.7637 60.0547 62.8856 59.7239 63.1106C59.3931 63.3357 59.1364 63.6538 58.9864 64.0247C58.8364 64.3956 58.7998 64.8027 58.8812 65.1944C58.9625 65.5861 59.1583 65.9449 59.4436 66.2254C59.729 66.5059 60.0911 66.6955 60.4842 66.7702C60.8773 66.8449 61.2838 66.8013 61.6521 66.645C61.8968 66.5415 62.1186 66.3907 62.305 66.2014C62.4913 66.012 62.6385 65.7878 62.7381 65.5416C62.8377 65.2953 62.8877 65.0318 62.8854 64.7662C62.883 64.5006 62.8284 64.238 62.7244 63.9936Z" fill="#DDE8FD"/>
<path d="M276.592 123.386L277.582 124.988C278.097 125.579 278.233 125.909 278.641 126.111C279.624 126.595 281.448 127.836 281.576 130.444C281.576 130.444 281.546 131.919 280.556 131.442C279.566 130.964 279.994 131.008 278.593 130.364C277.191 129.72 276.663 127.669 276.534 126.971L275.385 125.474L276.592 123.386Z" fill="#EB8D8D"/>
<path d="M213.918 99.9005C213.918 99.9005 212.868 97.3295 211.714 97.2247C210.559 97.1199 206.887 96.5436 206.623 97.0675C206.36 97.5915 206.623 99.4813 207.411 100.162C208.199 100.844 213.08 101.948 213.08 101.948L213.918 99.9005Z" fill="#EB8D8D"/>
<path d="M247.356 207.146C247.481 207.708 247.528 208.285 247.499 208.86C247.444 209.436 246.595 209.994 246.591 209.994C246.041 210.233 245.281 210.265 244.405 210.233C244.147 210.233 243.87 210.217 243.593 210.192C243.204 210.159 242.803 210.175 242.39 210.119C242.171 210.091 241.974 210.067 241.8 210.052L241.662 210.041H241.557C240.554 209.975 240.191 210.131 239.39 210.265H234.651C232.559 209.902 231.771 209.058 231.64 208.645C231.498 208.196 233.115 207.848 234.925 207.445L235.187 207.387C235.428 207.335 235.671 207.279 235.911 207.223C238.067 206.719 240.2 206.081 240.906 204.014C241.654 201.823 241.478 195.318 241.478 195.318H248.028C248.028 195.318 246.31 202.504 246.492 204.575C246.589 205.681 247.119 205.995 247.323 206.953C247.33 207.013 247.343 207.081 247.356 207.146Z" fill="#EB8D8D"/>
<path d="M255.112 138.442C254.56 141.543 253.772 144.744 253.089 148.077C251.989 153.432 251.16 159.117 252.009 165.249C252.124 166.109 252.187 166.976 252.196 167.844C252.361 178.672 247.518 198.295 247.518 198.295C247.518 198.295 246.208 198.857 244.001 198.754C242.867 198.698 241.127 197.966 241.127 197.966C241.127 197.966 240.668 185.803 240.642 169.436C240.622 157.575 238.294 141.958 237.822 132.782C237.538 127.228 238.155 119.83 238.155 119.83C238.155 119.83 247.802 112.074 251.266 116.043C254.685 119.965 257.178 126.849 255.112 138.442Z" fill="#0B0754"/>
<path d="M252.009 165.249C252.124 166.11 252.186 166.976 252.196 167.844C244.972 157.379 243.374 134.558 243.374 134.558L251.309 138.409C251.309 138.409 252.179 142.688 253.096 148.077C251.988 153.433 251.159 159.123 252.009 165.249Z" fill="#060632"/>
<path d="M268.369 208.816C268.35 209.075 268.257 209.322 268.101 209.53C267.944 209.737 267.731 209.894 267.488 209.983C267.124 210.13 266.738 210.217 266.346 210.24C265.866 210.276 265.383 210.276 264.903 210.24C264.385 210.208 263.835 210.146 263.269 210.071C263.052 210.043 262.856 210.019 262.68 210.004L262.541 209.993H262.435C261.353 209.92 261.016 210.107 260.071 210.247H255.73C253.484 209.909 252.657 209.025 252.52 208.601C252.383 208.176 253.995 207.805 255.802 207.405L256.066 207.347L256.791 207.184C258.946 206.681 261.082 206.045 261.787 203.984C262.536 201.801 261.465 195.416 261.465 195.416L267.527 194.911C267.527 194.911 267.153 202.186 267.33 204.252C267.428 205.354 267.991 205.96 268.195 206.915C268.21 206.982 268.223 207.048 268.234 207.115C268.356 207.673 268.402 208.245 268.369 208.816Z" fill="#EB8D8D"/>
<path d="M267.516 198.849C267.516 198.849 265.957 199.586 264.836 199.811C263.715 200.036 261.383 199.598 261.383 199.598C260.73 192.735 259.629 185.921 258.088 179.202C255.926 169.736 252.711 158.55 248.227 147.953C247.271 145.691 243.322 134.983 242.652 132.281C240.625 124.115 242.652 124.994 242.652 124.994L260.363 122.917C260.363 122.917 262.545 124.04 263.545 135.568C263.846 139.021 263.884 153.93 264.336 156.755C264.765 159.433 265.272 161.658 265.858 163.104C269.161 171.184 267.516 198.849 267.516 198.849Z" fill="#0B0754"/>
<path d="M268.369 208.862C268.35 209.121 268.257 209.369 268.101 209.577C267.944 209.784 267.731 209.942 267.487 210.032C266.886 210.215 266.258 210.299 265.629 210.279C264.841 210.268 264.054 210.211 263.273 210.108C263.056 210.084 262.858 210.065 262.68 210.052L262.541 210.041H262.435C261.377 209.974 261.031 210.15 260.133 210.288H255.664C253.474 209.94 252.655 209.068 252.52 208.645C252.385 208.222 253.995 207.848 255.802 207.448C257.544 208.261 259.468 208.601 261.383 208.434C263.87 208.196 266.411 207.202 268.195 206.954C268.21 207.021 268.223 207.088 268.234 207.154C268.356 207.715 268.401 208.289 268.369 208.862Z" fill="#AA4B47"/>
<path d="M247.499 208.86C247.48 209.119 247.387 209.367 247.23 209.575C247.073 209.782 246.86 209.94 246.616 210.029C246.014 210.214 245.386 210.297 244.757 210.276C243.969 210.265 243.183 210.209 242.401 210.108C242.182 210.082 241.986 210.063 241.808 210.05L241.67 210.039H241.565C240.507 209.969 240.159 210.145 239.259 210.284H234.794C232.603 209.936 231.783 209.064 231.648 208.643C231.506 208.194 233.123 207.846 234.932 207.443C236.672 208.259 238.597 208.6 240.511 208.431C242.998 208.194 245.54 207.2 247.323 206.951C247.338 207.019 247.351 207.086 247.364 207.151C247.485 207.712 247.531 208.287 247.499 208.86Z" fill="#AA4B47"/>
<path d="M240.413 69.9033C239.814 65.0177 241.349 57.1999 251.092 58.4499C260.834 59.6998 263.916 69.2802 261.946 73.5408C259.975 77.8015 264.777 78.8287 266.284 83.4112C267.577 87.3407 268.028 92.2338 270.122 94.4268C276.874 101.498 263.641 112.373 255.665 110.079C241.136 105.903 239.264 105.28 239.781 93.8654C240.045 88.0181 244.594 85.7521 241.706 84.0587C234.73 79.9645 241.766 80.9432 240.413 69.9033Z" fill="#3E3E3E"/>
<path d="M254.747 82.6815L252.061 89.6236L246.26 89.9061L243.369 85.5874C245.193 84.199 245.964 82.1164 246.249 80.2528C246.422 79.0696 246.457 77.8701 246.352 76.6788C246.312 76.3046 246.273 76.0875 246.273 76.0875L253.499 73.8908L253.525 73.8777C253.615 75.7919 253.712 77.2963 253.832 78.4658C254.245 82.5917 254.747 82.6815 254.747 82.6815Z" fill="#EB8D8D"/>
<path d="M243.345 82.4395C243.719 82.4395 250.052 81.1503 260.749 83.8859C260.749 83.8859 254.893 110.717 256.883 115.774C258.092 118.863 259.011 122.058 259.628 125.317L238.041 125.585C238.041 125.585 238.342 108.226 237.349 102.083C236.355 95.94 243.345 82.4395 243.345 82.4395Z" fill="#EB8D8D"/>
<path d="M260.31 103.87C260.623 102.886 260.982 101.905 261.362 100.899C261.802 99.7292 263.78 87.518 262.333 85.8713C260.806 84.1293 255.596 82.8176 255.596 82.8176C254.53 84.4867 250.879 88.6369 246.348 87.8885C243.906 87.4862 243.408 83.0945 243.354 82.5032L243.369 82.4377H243.346H243.296C242.581 82.5444 236.901 83.4688 235.217 86.3672C232.728 90.6484 230.018 103.5 227.357 103.309C226.135 103.221 213.834 98.599 213.834 98.599C213.834 98.599 211.786 100.519 212.178 102.873C212.178 102.873 218.25 106.939 223.387 109.534C224.099 109.893 224.791 110.225 225.446 110.513C227.297 111.325 228.856 111.796 229.707 111.594C229.98 111.525 230.241 111.416 230.482 111.271C231.595 110.627 232.896 109.212 234.142 107.603C234.971 106.531 235.776 105.373 236.485 104.295L236.53 104.227C236.835 108.312 237.14 112.758 236.824 116.242C236.583 118.892 236.409 124.633 236.863 126.115C237.81 129.206 244.78 130.023 251.283 129.7C254.348 129.548 256.513 129.372 258.091 129.009C260.378 128.485 261.422 127.565 262.174 125.75C262.893 124.021 259.573 115.905 259.259 112.354C258.969 109.113 259.474 106.471 260.31 103.87Z" fill="#6C5252"/>
<path d="M255.595 82.814C255.595 82.814 260.73 83.0161 263.11 85.2315C265.801 87.737 269.81 103.053 270.89 110.511C270.89 110.511 276.317 120.864 278.054 124.971C277.803 125.365 277.472 125.701 277.082 125.957C276.643 126.224 276.162 126.418 275.66 126.53C275.66 126.53 265.86 115.591 265.214 113.862C264.568 112.133 254.936 97.25 255.595 82.814Z" fill="#6A5555"/>
<path d="M262.182 125.762C261.434 127.577 260.386 128.498 258.099 129.022C255.041 128.434 253.025 122.809 251.987 120.04C250.791 116.859 257.023 100.451 258.743 100.6C260.021 100.711 260.266 102.803 260.309 103.869C259.482 106.47 258.976 109.109 259.267 112.364C259.573 115.918 262.893 124.033 262.182 125.762Z" fill="#5A4747"/>
<path d="M236.485 104.307C235.776 105.385 234.971 106.552 234.142 107.615C232.954 109.078 231.642 110.491 230.482 111.282C230.241 111.428 229.98 111.537 229.707 111.606C228.856 111.808 227.297 111.337 225.446 110.525C226.528 110.594 227.613 110.578 228.693 110.476C230.555 110.317 231.097 108.3 234.043 105.276C235.804 103.468 236.339 103.745 236.485 104.307Z" fill="#5A4747"/>
<path d="M253.501 73.8906C252.408 75.6757 249.773 79.3526 246.251 80.2526C246.425 79.0694 246.459 77.8699 246.354 76.6786C246.315 76.3044 246.275 76.0874 246.275 76.0874L253.501 73.8906Z" fill="#FA7269"/>
<path d="M244.379 76.5791C244.379 76.5791 253.064 78.323 254.067 72.8967C255.07 67.4703 256.875 64.0442 251.363 62.7007C245.852 61.3572 244.398 63.2283 243.621 64.9573C242.845 66.6862 242.145 75.9841 244.379 76.5791Z" fill="#EB8D8D"/>
<path d="M255.75 63.0602C254.279 61.408 252.159 61.0861 250.613 61.1123C251.549 59.9896 247.806 57.5084 243.513 61.7298C241.668 63.5486 241.947 67.1244 242.935 69.1995C242.935 69.1995 244.453 64.7536 247.217 63.7731C247.848 63.5382 248.435 63.1992 248.953 62.7702C249.29 63.6159 249.966 64.8116 251.328 66.2992C254.184 69.4222 253.628 75.7355 253.628 75.7355C253.628 75.7355 258.318 65.9493 255.75 63.0602Z" fill="#303030"/>
<path d="M247.086 73.9097C247.086 73.9097 246.854 74.5534 245.214 74.2615C245.214 74.2615 243.841 74.0164 243.968 73.2941C243.972 73.2941 245.371 72.9311 247.086 73.9097Z" fill="white"/>
<path d="M415.639 211H1.86827C1.77263 211 1.68105 210.961 1.61342 210.894C1.54579 210.826 1.50757 210.735 1.50708 210.639C1.50757 210.543 1.54579 210.452 1.61342 210.384C1.68105 210.317 1.77263 210.278 1.86827 210.278H415.639C415.735 210.278 415.826 210.317 415.894 210.384C415.961 210.452 416 210.543 416 210.639C416 210.735 415.961 210.826 415.894 210.894C415.826 210.961 415.735 211 415.639 211Z" fill="#0D0956"/>
</svg>
