<svg width="128" height="64" viewBox="0 0 128 64" fill="none" xmlns="http://www.w3.org/2000/svg">
<rect width="128" height="64" rx="10" fill="white"/>
<path fill-rule="evenodd" clip-rule="evenodd" d="M48.1353 13.6117C47.598 13.6597 46.4633 13.9018 46.0535 14.0559C44.7365 14.5513 43.762 15.3643 42.8485 16.7303C42.0433 17.9342 41.7779 18.8129 41.7837 20.2552C41.7889 21.5542 42.0083 22.6403 42.4831 23.7181C42.9986 24.8882 44.278 26.1088 45.8603 26.9398C46.6954 27.3785 47.9632 27.9229 48.7757 28.1919C50.255 28.6816 51.2958 29.2 52.427 30.0105C53.366 30.6833 53.9886 31.6254 54.2886 32.8274C54.4788 33.5893 54.4934 34.9867 54.3179 35.6249C53.8532 37.315 52.502 38.4803 50.5477 38.8762C49.1842 39.1524 47.3621 38.7777 46.1413 37.9699C44.6748 36.9997 43.5285 35.1355 43.246 33.2617C43.194 32.9167 43.1513 32.4717 43.1511 32.2726C43.1505 31.8113 43.0829 31.7545 42.562 31.7792L42.155 31.7985L42.1097 32.1201C42.0849 32.2969 41.9901 33.3532 41.8993 34.4673C41.8084 35.5814 41.6741 37.0111 41.6007 37.6445C41.4424 39.0112 41.4603 39.0975 41.9016 39.0975C42.1974 39.0975 42.2574 39.0464 42.6845 38.4304C42.7996 38.2645 42.9396 38.1111 42.9959 38.0895C43.1407 38.034 43.4576 38.2003 44.1365 38.688C44.7793 39.15 45.8571 39.7184 46.5039 39.9367C47.5967 40.3056 49.4695 40.4785 50.6974 40.324C53.1535 40.0149 54.9975 38.7807 56.0629 36.7328C56.7001 35.5078 57.0234 34.2772 57.0871 32.8334C57.1963 30.3621 56.5453 28.4773 55.0915 27.0553C54.0692 26.0553 52.867 25.4783 49.7096 24.4721C48.4532 24.0718 47.0419 23.4211 46.2646 22.8838C44.9735 21.9915 44.4073 20.8578 44.4058 19.162C44.4051 18.3332 44.5248 17.8346 44.9259 16.9938C45.1823 16.4563 45.7569 15.8436 46.3194 15.5079C47.7706 14.642 50.1364 14.699 51.7372 15.6386C52.9852 16.3711 54.46 18.5137 54.9328 20.2809L55.0157 20.591L55.3289 20.554C55.7258 20.507 55.8215 20.4254 55.8208 20.1348C55.8202 19.9041 55.5553 17.2671 55.4385 16.3298C55.4053 16.0631 55.3577 15.4315 55.3327 14.9261C55.277 13.8027 55.2222 13.6862 54.8264 13.8516C54.6889 13.909 54.4241 14.1 54.238 14.276C54.0518 14.4521 53.8431 14.5961 53.7742 14.5961C53.7054 14.5961 53.4649 14.5106 53.2398 14.4062C51.9547 13.8098 49.754 13.4673 48.1353 13.6117ZM66.6268 24.3073C65.9218 24.3761 65.1095 24.5527 64.6362 24.7402C63.1422 25.3319 61.7561 26.6789 60.9927 28.2809C60.7178 28.858 60.3618 30.0742 60.2558 30.7988C60.1594 31.4583 60.2143 33.5463 60.348 34.3065C60.5601 35.5115 60.8955 36.3552 61.5805 37.4058C62.6139 38.9909 63.9169 39.8071 65.9836 40.1637C66.8363 40.3109 68.4542 40.261 69.124 40.0669C70.7801 39.587 72.2448 38.3262 73.1274 36.6208C73.4681 35.9626 73.4612 35.861 73.0621 35.6587C72.8872 35.5701 72.7019 35.5137 72.6505 35.5335C72.599 35.5532 72.4539 35.7362 72.328 35.9401C72.0381 36.4099 71.2845 37.127 70.7438 37.4479C69.2421 38.339 67.2834 38.3879 65.7907 37.5713C65.2002 37.2483 64.238 36.2625 63.8626 35.596C63.5074 34.9652 63.1838 34.0519 63.0427 33.2817C62.9302 32.6671 62.8923 30.8542 62.9826 30.401L63.0304 30.161L67.877 30.1437C73.4878 30.1238 72.9943 30.1889 72.9943 29.4681C72.9943 28.5787 72.5131 27.2405 71.8642 26.3251C70.7418 24.7421 69.0101 24.0749 66.6268 24.3073ZM106.451 24.3091C105.292 24.455 104.149 24.8668 102.973 25.5626C101.987 26.1458 101.078 27.1395 100.709 28.0378C100.601 28.3026 100.563 28.526 100.56 28.9368C100.551 29.8558 100.746 30.0944 101.505 30.0944C102.915 30.0944 103.475 29.2916 103.277 27.5526C103.186 26.7485 103.265 26.5303 103.765 26.2007C104.133 25.9582 105.018 25.6811 105.622 25.6193C106.443 25.5351 107.493 25.828 107.909 26.2575C108.38 26.7442 108.561 27.6598 108.562 29.5487L108.562 30.7715L108.032 31.1024C107.406 31.4925 106.71 31.8435 105.266 32.4978C102.626 33.6934 101.81 34.2894 101.246 35.4351C100.908 36.1208 100.847 36.394 100.847 37.2326C100.846 38.739 101.264 39.6045 102.23 40.0932C102.579 40.2694 102.581 40.2696 103.689 40.2416C104.788 40.2139 104.806 40.2111 105.443 39.9699C106.743 39.4774 108.021 38.7098 108.553 38.1028C108.721 37.91 108.78 37.8761 108.825 37.9465C108.856 37.996 108.882 38.0814 108.883 38.1363C108.885 38.315 109.377 39.2515 109.611 39.52C109.736 39.664 110.022 39.8797 110.246 39.9994C110.606 40.1924 110.721 40.2201 111.257 40.2442C111.978 40.2765 112.443 40.1863 112.957 39.915C113.62 39.565 114.379 38.5653 114.339 38.0951C114.322 37.9048 114.268 37.825 114.044 37.6634L113.77 37.4652L113.498 37.7317C113.177 38.0457 112.885 38.1794 112.394 38.2371C112.036 38.2791 112.036 38.279 111.753 37.9959C111.22 37.463 111.2 37.2479 111.199 31.9593C111.199 29.3917 111.171 27.2436 111.134 26.9111C111.054 26.2045 110.824 25.691 110.391 25.2581C110.055 24.922 109.358 24.5294 108.859 24.3942C108.439 24.2806 107.064 24.232 106.451 24.3091ZM114.351 24.3709C114.351 24.4853 114.394 24.4995 114.737 24.4995H115.123V26.7503H115.444V24.4995H115.83C116.173 24.4995 116.216 24.4853 116.216 24.3709C116.216 24.2482 116.173 24.2423 115.284 24.2423C114.394 24.2423 114.351 24.2482 114.351 24.3709ZM116.58 24.7373C116.557 25.0133 116.52 25.5791 116.496 25.9947C116.455 26.7365 116.456 26.7503 116.591 26.7503C116.765 26.7503 116.778 26.6836 116.831 25.5639L116.874 24.6669L117.208 25.6604C117.515 26.5734 117.555 26.6539 117.697 26.6539C117.838 26.6539 117.883 26.5654 118.221 25.6249C118.59 24.5986 118.591 24.5969 118.594 24.9497C118.595 25.1442 118.615 25.629 118.638 26.0269C118.68 26.7436 118.681 26.7503 118.84 26.7503H119L118.957 25.9625C118.933 25.5292 118.896 24.965 118.875 24.7085L118.835 24.2423H118.625C118.387 24.2423 118.418 24.1839 117.962 25.4849L117.718 26.1808L117.075 24.2745L116.621 24.2357L116.58 24.7373ZM73.7326 24.6408C73.7127 24.6925 73.7049 24.993 73.7152 25.3085L73.734 25.8822L74.5701 25.9146C75.4847 25.9501 75.7405 26.0402 76.0129 26.4226C76.0825 26.5204 77.2683 29.6332 78.6481 33.3399C80.2274 37.583 81.2096 40.1359 81.2995 40.2316C81.4011 40.3397 81.5131 40.3837 81.6866 40.3837C82.1682 40.3837 82.1483 40.4225 84.6076 34.6602C85.9603 31.4906 86.9056 29.3548 86.9558 29.3548C87.0096 29.3548 87.6727 31.1972 88.7959 34.4673C89.7617 37.2792 90.6163 39.72 90.695 39.8913C90.7737 40.0626 90.8962 40.2435 90.9672 40.2932C91.1407 40.4147 91.5193 40.4077 91.7021 40.2797C91.8837 40.1525 91.8006 40.3457 93.5218 36.0525C95.5394 31.0201 97.1801 27.0714 97.4526 26.5918C97.5373 26.4427 97.7286 26.2558 97.913 26.1416C98.2063 25.9602 98.2787 25.9449 98.9414 25.9245C99.3334 25.9125 99.6904 25.8727 99.7346 25.8362C99.7872 25.7929 99.815 25.5844 99.815 25.2335C99.815 24.7869 99.796 24.6868 99.7017 24.6363C99.6304 24.5983 99.2062 24.5995 98.56 24.6399C97.5934 24.7002 94.6069 24.6638 94.2226 24.587C93.9265 24.5278 93.8334 24.6895 93.8334 25.2629C93.8334 25.5638 93.8639 25.7905 93.9106 25.8371C93.9554 25.882 94.1705 25.9143 94.4241 25.9143C94.8094 25.9143 94.8836 25.935 95.0578 26.0912C95.3323 26.3371 95.3957 26.6655 95.278 27.2317C95.1882 27.6641 92.2649 35.7231 92.1535 35.8456C92.1235 35.8787 92.0814 35.8881 92.0598 35.8665C92.0383 35.845 91.5734 34.4 91.0266 32.6554C89.0819 26.4497 89.1898 26.8228 89.2692 26.5822C89.3897 26.2171 89.5965 26.1072 90.1631 26.1072C90.4607 26.1072 90.6866 26.0767 90.7333 26.0301C90.8397 25.9236 90.837 24.9844 90.73 24.9082C90.6855 24.8764 89.2019 24.8514 87.4016 24.852L84.1535 24.8532V26.0751L84.7967 26.1113C85.1504 26.1312 85.5038 26.1822 85.582 26.2247C85.9148 26.4055 86.1737 26.9581 86.178 27.4966C86.1796 27.7046 82.6323 36.2881 82.4753 36.4562C82.401 36.5357 82.385 36.5357 82.3561 36.4562C82.1424 35.8694 79.4261 26.5902 79.4261 26.4472C79.4261 26.3405 79.4861 26.177 79.5595 26.0838C79.6707 25.9424 79.7443 25.9143 80.0044 25.9143C80.5167 25.9143 80.5195 25.9108 80.5195 25.2722C80.5195 24.8903 80.4928 24.686 80.4366 24.6394C80.3778 24.5906 79.9894 24.5903 79.102 24.6381C77.9033 24.7028 74.6625 24.6692 74.0539 24.5858C73.8366 24.556 73.7601 24.5691 73.7326 24.6408ZM67.5357 25.4281C68.3959 25.6105 68.9954 26.0869 69.3884 26.9005C69.686 27.5168 69.8607 28.5342 69.7154 28.8057C69.5863 29.0468 69.3372 29.0654 66.2313 29.0654C63.6511 29.0654 63.2179 29.0521 63.2179 28.9728C63.2179 28.8033 63.5501 27.9468 63.8181 27.4256C64.3303 26.429 65.304 25.6541 66.3213 25.4331C66.8434 25.3197 67.0205 25.319 67.5357 25.4281ZM108.334 36.8263C107.893 37.7275 106.203 38.679 105.264 38.5545C104.766 38.4885 104.468 38.3366 104.157 37.9908C103.816 37.6117 103.674 37.2011 103.674 36.5913C103.674 35.6933 104.002 34.9002 104.634 34.2721C105.245 33.6647 105.818 33.2837 107.019 32.6875C107.602 32.3976 108.167 32.1057 108.273 32.0388L108.466 31.9172L108.5 36.4883L108.334 36.8263Z" fill="black"/>
<path fill-rule="evenodd" clip-rule="evenodd" d="M62.1222 45.7207C61.3748 45.9099 60.8766 46.5894 60.8176 47.5003C60.783 48.0348 60.9177 48.5877 61.1738 48.9623C61.6387 49.6425 62.8018 49.8322 63.6088 49.3593C63.8904 49.1943 63.891 49.1931 63.7951 49.0077C63.6583 48.743 63.6274 48.7373 63.2802 48.9131C62.8866 49.1124 62.3454 49.1279 62.0511 48.9485C61.797 48.7936 61.5933 48.4647 61.5382 48.1207L61.4952 47.8517L63.9874 47.8167L63.9725 47.3704C63.9642 47.1249 63.913 46.7902 63.8587 46.6266C63.7536 46.3104 63.3884 45.9036 63.1191 45.8029C62.872 45.7104 62.337 45.6663 62.1222 45.7207ZM66.3406 45.7304C65.2682 45.9478 64.9664 47.1187 65.858 47.6025C66.032 47.6969 66.3995 47.8317 66.6748 47.902C66.9501 47.9722 67.2463 48.0762 67.333 48.1331C67.5382 48.2675 67.6038 48.5316 67.4847 48.7438C67.1892 49.2701 66.0914 49.1486 65.9259 48.5712C65.8692 48.3737 65.8507 48.3634 65.5539 48.3634C65.2605 48.3634 65.2416 48.3735 65.2416 48.5305C65.2416 49.2266 66.1835 49.758 67.1238 49.5923C67.8297 49.468 68.222 49.0756 68.2238 48.492C68.2256 47.9366 67.8578 47.6346 66.8834 47.3913C66.0226 47.1762 65.7869 46.8437 66.2015 46.4292C66.503 46.1277 67.0973 46.1745 67.3788 46.522C67.4399 46.5975 67.4906 46.7099 67.4914 46.7717C67.4925 46.8653 67.5533 46.8843 67.8516 46.8843H68.2105L68.1673 46.6753C68.0211 45.967 67.2192 45.5522 66.3406 45.7304ZM70.7615 45.7497C70.2384 45.8948 69.8439 46.2751 69.6391 46.8318C69.4837 47.2542 69.5009 48.1141 69.6739 48.5664C69.8354 48.9889 70.2328 49.3934 70.6176 49.5271C71.007 49.6623 71.7089 49.6302 72.1056 49.4589C72.5167 49.2813 72.6072 49.186 72.5162 49.0266C72.3485 48.733 72.3505 48.7337 72.0549 48.8877C71.6874 49.0792 71.0643 49.1249 70.7855 48.9808C70.551 48.8595 70.289 48.4333 70.238 48.0901L70.2022 47.8489H72.7025V47.4748C72.7025 47.033 72.568 46.5398 72.3655 46.2393C72.0792 45.8147 71.3404 45.5891 70.7615 45.7497ZM81.1744 45.7296C80.692 45.8492 80.3063 46.1515 80.1676 46.5187C80.0604 46.8022 80.0772 46.82 80.4529 46.82C80.7184 46.82 80.8066 46.7968 80.8066 46.7271C80.8066 46.676 80.8735 46.5566 80.9551 46.4616C81.0688 46.3295 81.1781 46.282 81.4215 46.2595C82.0025 46.2054 82.2591 46.4141 82.3282 46.9964L82.3662 47.3177L81.6325 47.3457C81.0387 47.3685 80.841 47.4018 80.5957 47.5205C80.0771 47.7715 79.8455 48.2249 79.9648 48.7558C80.0913 49.3185 80.471 49.6071 81.0896 49.6104C81.5273 49.6127 81.8044 49.4992 82.1412 49.1796L82.3503 48.9812V49.1815C82.3503 49.5317 82.4006 49.5852 82.7298 49.5852H83.0313L83.0102 48.1865C82.9852 46.5217 82.9738 46.4328 82.7518 46.169C82.4406 45.7992 81.712 45.5963 81.1744 45.7296ZM88.2088 45.7304C87.3513 45.9042 86.8499 46.7554 86.9356 47.8918C87.0172 48.972 87.6385 49.6188 88.5891 49.6129C88.7837 49.6117 89.0552 49.5726 89.1925 49.5259C89.6418 49.3732 90.1328 48.8176 90.1328 48.4619C90.1328 48.3871 90.0585 48.3634 89.8241 48.3634C89.5306 48.3634 89.5115 48.3743 89.4353 48.585C89.3282 48.8811 89.0124 49.0708 88.6266 49.0708C88.2233 49.0708 87.9769 48.9309 87.8025 48.6032C87.6801 48.3735 87.6576 48.2311 87.6571 47.6865C87.6564 46.9301 87.779 46.5723 88.1086 46.3687C88.3573 46.215 88.7778 46.2024 89.0454 46.3408C89.2519 46.4476 89.4889 46.7806 89.4893 46.9647C89.4895 47.0568 89.5479 47.0772 89.8112 47.0772C90.0813 47.0772 90.1328 47.0581 90.1328 46.9582C90.1328 46.7792 89.9978 46.4235 89.8568 46.2312C89.5686 45.8379 88.8121 45.608 88.2088 45.7304ZM92.623 45.7307C91.7844 45.9346 91.3227 46.6348 91.3322 47.6881C91.3382 48.3634 91.5158 48.837 91.8932 49.1848C92.2228 49.4886 92.5481 49.6107 93.0271 49.6107C94.0261 49.6107 94.6211 48.965 94.6854 47.8109C94.7521 46.6143 94.1746 45.8016 93.1879 45.7035C93.011 45.686 92.7568 45.6982 92.623 45.7307ZM97.5615 45.7341C97.42 45.7679 97.1974 45.8814 97.0669 45.9862C96.9362 46.0911 96.8132 46.1769 96.7935 46.1769C96.7737 46.1769 96.7575 46.0756 96.7575 45.9518V45.7267H96.1144V49.5852H96.8219V48.1526C96.8219 46.5615 96.8356 46.5024 97.2463 46.3308C97.7501 46.1204 98.2291 46.325 98.3632 46.808C98.3995 46.9384 98.4292 47.6181 98.4294 48.3185L98.4298 49.592L99.1052 49.5531L99.1373 48.1674C99.1728 46.6376 99.1975 46.5393 99.5986 46.3319C99.8702 46.1915 100.266 46.2467 100.473 46.4541C100.694 46.6754 100.739 46.997 100.742 48.3794L100.745 49.5852H101.388L101.388 48.2187C101.388 46.7634 101.345 46.4679 101.089 46.1286C100.869 45.8362 100.584 45.7059 100.166 45.7062C99.7435 45.7064 99.3414 45.8903 99.1373 46.1769L98.9978 46.3728L98.8583 46.1658C98.5994 45.7816 98.0825 45.6096 97.5615 45.7341ZM106.909 45.7384C106.78 45.7729 106.558 45.9002 106.417 46.0213L106.159 46.2415L106.116 45.9841C106.073 45.7292 106.07 45.7267 105.789 45.7267H105.505V49.5852H106.148V48.2003C106.148 46.6456 106.161 46.5927 106.605 46.3661C107.117 46.1053 107.689 46.2804 107.816 46.7362C107.853 46.8707 107.884 47.5683 107.884 48.2863L107.885 49.592L108.56 49.5531V48.1383C108.56 46.9187 108.544 46.6812 108.442 46.4169C108.302 46.0543 108.028 45.8246 107.626 45.7319C107.289 45.6543 107.223 45.6548 106.909 45.7384ZM111.519 45.7355C111.377 45.7685 111.154 45.8814 111.024 45.9862C110.773 46.1876 110.757 46.1836 110.69 45.9036C110.653 45.7474 110.618 45.7267 110.392 45.7267H110.136V51H110.843V49.1769L110.996 49.3208C111.217 49.5276 111.716 49.665 112.064 49.6146C112.687 49.5244 113.098 49.1373 113.287 48.4601C113.412 48.0162 113.343 47.0007 113.161 46.5793C112.965 46.1267 112.62 45.8242 112.198 45.7337C112.015 45.6945 111.846 45.6653 111.821 45.6689C111.796 45.6725 111.66 45.7024 111.519 45.7355ZM40.545 45.8071C40.5459 45.8514 40.7874 46.7123 41.0817 47.7203L41.6169 49.5531H42.1645L42.4796 48.5563C42.6528 48.0081 42.8392 47.3859 42.8938 47.1737C43.0458 46.5823 43.0608 46.567 43.1451 46.9164C43.1878 47.0933 43.3919 47.7661 43.5987 48.4116L43.9747 49.5852H44.5042L45.0403 47.7364C45.3352 46.7195 45.5897 45.8514 45.6059 45.8071C45.6271 45.7491 45.5391 45.7267 45.2898 45.7267H44.9444L44.5826 47.1897C44.3836 47.9944 44.2077 48.6093 44.1915 48.5563C44.1753 48.5032 43.9957 47.9102 43.7924 47.2384C43.2949 45.5946 43.3591 45.7267 43.0575 45.7267H42.8026L42.4821 46.7396C42.3058 47.2967 42.1074 47.9392 42.0413 48.1675L41.921 48.5825L41.6084 47.3636C41.4365 46.6932 41.2699 46.0507 41.2382 45.9357C41.1831 45.7358 41.1668 45.7267 40.862 45.7267C40.6492 45.7267 40.544 45.7534 40.545 45.8071ZM46.5415 45.8071C46.558 45.8514 46.8118 46.7195 47.1055 47.7364L47.6395 49.5852H48.1749L48.5642 48.3151C48.7782 47.6166 48.9812 46.9438 49.0153 46.82L49.0773 46.5949L49.1549 46.8843C49.1975 47.0434 49.3998 47.709 49.6043 48.3634L49.9762 49.5531H50.5286L51.0329 47.8167C51.7131 45.4744 51.6818 45.7267 51.2922 45.7267C50.9154 45.7267 51.0112 45.5123 50.5473 47.3935C50.2682 48.525 50.1912 48.772 50.1912 48.5349C50.1912 48.4476 49.9082 47.5047 49.4101 45.9323C49.3466 45.7319 49.3278 45.721 49.0761 45.7394L48.8094 45.7589L48.3998 47.0772C47.8946 48.7032 47.9236 48.6263 47.8913 48.4277C47.8546 48.202 47.233 45.8438 47.1933 45.7795C47.1753 45.7505 47.0145 45.7267 46.836 45.7267C46.603 45.7267 46.5198 45.7494 46.5415 45.8071ZM52.6004 45.9036C52.6222 46.0009 52.867 46.8618 53.1443 47.8167L53.6485 49.5531H54.2037L54.6061 48.2669C54.8274 47.5595 55.01 46.9173 55.0118 46.8398C55.017 46.6126 55.1245 46.6108 55.1674 46.8371C55.189 46.9515 55.3857 47.6166 55.6046 48.3151L56.0024 49.5852H56.5377L57.0716 47.7364C57.3653 46.7195 57.6197 45.8497 57.6371 45.8035C57.6612 45.7394 57.5866 45.7241 57.3227 45.7391L56.9768 45.7589L56.6117 47.2058C56.3226 48.3516 56.2379 48.6126 56.2044 48.4598C56.1811 48.3537 55.9828 47.7026 55.7637 47.0129L55.3653 45.7589L55.1 45.7394C54.835 45.72 54.8346 45.7203 54.7351 46.0288C54.3879 47.1059 53.9853 48.4494 53.9818 48.5427C53.9796 48.6032 53.8251 48.0595 53.6385 47.3344C53.1781 45.5454 53.2632 45.7267 52.8831 45.7267C52.5647 45.7267 52.5612 45.7289 52.6004 45.9036ZM73.7608 45.9036C73.7825 46.0009 74.0269 46.8618 74.304 47.8167L74.8078 49.5531H75.3589L75.7638 48.2669C75.9866 47.5595 76.1704 46.9173 76.1723 46.8398C76.1779 46.6126 76.2852 46.6108 76.328 46.8371C76.3497 46.9515 76.5464 47.6166 76.7653 48.3151L77.1631 49.5852H77.6983L78.2323 47.7364C78.526 46.7195 78.7804 45.8497 78.7978 45.8035C78.8218 45.7394 78.7472 45.7241 78.4834 45.7391L78.1374 45.7589L77.7793 47.1908C77.4569 48.48 77.3389 48.7982 77.3307 48.4009C77.3292 48.3272 77.1475 47.7026 76.927 47.0129L76.526 45.7589L76.2607 45.7394C75.9956 45.72 75.9953 45.7203 75.8958 46.0288C75.5483 47.1067 75.146 48.4494 75.1426 48.5427C75.1404 48.6032 74.9998 48.1174 74.8301 47.4631C74.6605 46.8087 74.4876 46.1503 74.4458 46L74.3699 45.7267H74.0456C73.7253 45.7267 73.7219 45.7289 73.7608 45.9036ZM62.8701 46.3419C63.0736 46.4471 63.3081 46.8643 63.3107 47.1254C63.3121 47.2686 63.3027 47.2701 62.4185 47.2701H61.5249L61.5921 47.0054C61.6305 46.8541 61.7611 46.6337 61.8968 46.4909C62.0994 46.2781 62.1744 46.2412 62.4049 46.2412C62.5536 46.2412 62.7629 46.2865 62.8701 46.3419ZM71.6339 46.3755C71.8518 46.5469 71.995 46.8239 71.995 47.074V47.2701H71.1268C70.3556 47.2701 70.2585 47.258 70.2585 47.1618C70.2585 46.9506 70.5362 46.4841 70.7336 46.3638C71.0038 46.199 71.4163 46.2043 71.6339 46.3755ZM93.5459 46.4154C93.8693 46.6875 93.9888 47.0219 93.9905 47.6594C93.9928 48.5734 93.6496 49.0711 93.0172 49.0705C92.6506 49.0702 92.3615 48.8881 92.1792 48.5427C92.0576 48.3122 92.0336 48.1665 92.0336 47.656C92.0336 47.1455 92.0576 46.9997 92.1792 46.7692C92.4622 46.233 93.1251 46.0614 93.5459 46.4154ZM112.136 46.386C112.492 46.622 112.665 47.0532 112.667 47.7119C112.668 48.1621 112.641 48.319 112.525 48.5427C112.214 49.1416 111.498 49.2587 110.988 48.7943C110.85 48.6686 110.843 48.6168 110.843 47.684C110.843 46.846 110.859 46.6864 110.956 46.5718C111.245 46.2285 111.773 46.1453 112.136 46.386ZM82.3503 48.1012C82.3503 48.6457 81.9133 49.0203 81.2673 49.0297C80.9651 49.034 80.9011 49.0118 80.7672 48.8562C80.5764 48.6344 80.5711 48.3706 80.7529 48.1394C80.9588 47.8778 81.2248 47.7899 81.8197 47.7871L82.3503 47.7846V48.1012ZM58.5525 49.5852H59.1957V48.8135H58.5525V49.5852ZM84.6657 49.592L85.3411 49.5531V48.8457L84.6657 48.8068V49.592ZM103.061 49.592L103.736 49.5531V48.8457L103.061 48.8068V49.592Z" fill="#6E6F71"/>
<path fill-rule="evenodd" clip-rule="evenodd" d="M21.6367 13.0219C19.48 13.1815 16.8724 14.0318 15.0399 15.1729C11.493 17.3816 9.15567 20.7021 8.22678 24.8521C8.02338 25.7611 7.99387 26.1543 8.00092 27.8618C8.00767 29.4906 8.04674 29.9978 8.2302 30.8331C8.83577 33.5906 10.0577 35.9322 11.9281 37.9198C14.9638 41.1454 18.9844 42.8051 23.3484 42.6341C25.6027 42.5457 27.3549 42.111 29.3463 41.1462C32.1327 39.7962 34.7181 37.2304 36.1377 34.4063C36.643 33.4008 37.1902 31.7508 37.3916 30.6251C37.4801 30.1301 37.5747 29.6232 37.6016 29.4985L37.6507 29.2719H31.9074V26.4517H34.7099C36.2514 26.4517 37.5364 26.4279 37.5654 26.3989C37.5944 26.3698 37.5553 25.9506 37.4786 25.4672C36.5083 19.3602 31.7159 14.433 25.609 13.2635C24.5849 13.0674 22.6289 12.9485 21.6367 13.0219ZM23.6412 19.4556C24.5895 19.6792 25.4209 20.1642 26.2225 20.9619C26.8003 21.5366 27.0273 21.8635 27.4469 22.725C28.1903 24.2516 28.2206 24.6744 27.6048 24.9296C27.4495 24.9939 25.0912 25.4008 22.3645 25.8336C19.6376 26.2664 17.3784 26.6488 17.3438 26.6833C17.2363 26.7909 17.517 28.6751 17.7713 29.5529C18.7804 33.0363 21.5807 34.9751 24.5503 34.2465C26.2029 33.841 27.6168 32.743 28.2652 31.3618C28.5992 30.65 28.6585 30.6129 29.1736 30.7926C29.5809 30.9346 29.5921 31.2497 29.2225 32.1756C28.5669 33.8181 27.2979 35.3378 25.9963 36.0395C24.2867 36.9611 21.6239 37.1606 19.654 36.5144C17.8729 35.9302 16.0153 33.9906 15.2274 31.8925C14.306 29.4388 14.1658 26.792 14.8437 24.6456C15.3389 23.0777 16.6919 21.2877 17.9656 20.5156C19.5557 19.5516 22.0626 19.0833 23.6412 19.4556ZM20.2388 20.8556C19.0786 21.2335 18.0824 22.3045 17.6739 23.6134C17.3918 24.5177 17.2545 25.3437 17.3864 25.3437C17.7486 25.3437 23.7568 24.33 23.9692 24.233C24.3446 24.0618 24.3632 23.8704 24.0891 23.001C23.8142 22.1284 23.1983 21.3478 22.5039 20.9918C21.977 20.7216 20.8572 20.6543 20.2388 20.8556Z" fill="#60BB47"/>
</svg>
