<svg width="128" height="64" viewBox="0 0 128 64" fill="none" xmlns="http://www.w3.org/2000/svg">
<rect width="128" height="64" rx="10" fill="white"/>
<path d="M76.4212 45.7343C76.4212 47.5746 74.7325 49.0666 72.9042 49.0666H10.2187C8.39037 49.0666 7.11111 47.5746 7.11111 45.7343V17.5544C7.11111 15.7142 8.39037 14.2222 10.2187 14.2222H72.9042C74.7325 14.2222 76.4212 15.7142 76.4212 17.5544V45.7343Z" fill="#CF0A10"/>
<path d="M86.3285 24.9372C85.5986 24.9138 84.8751 25.081 84.2287 25.4227C83.5823 25.7643 83.035 26.2686 82.6403 26.8863H82.5891V25.327H78.4109V43.2964H82.7958V37.3323H82.8469C83.7503 38.5513 85.0413 39.1726 86.6631 39.1726C90.4555 39.1726 92.3134 35.8542 92.3134 32.3537C92.3134 28.5426 90.5323 24.9372 86.3285 24.9372ZM85.2972 35.8027C83.3114 35.8027 82.6403 34.2731 82.6403 31.9124C82.6403 29.1125 84.1616 28.3091 85.3228 28.3091C87.2909 28.3091 87.9285 30.2008 87.9285 31.9124C87.9285 33.7547 87.2318 35.8027 85.2972 35.8027Z" fill="#00040C"/>
<path d="M106.031 29.4589C106.031 25.6478 102.963 24.9473 99.7902 24.9473C98.2433 24.9473 96.7475 25.1808 95.5352 25.8813C94.3229 26.5817 93.5238 27.7235 93.4471 29.4846H97.5466C97.7532 28.3706 98.4755 27.7987 99.739 27.7987C100.64 27.7987 101.853 28.1945 101.853 29.1997C101.853 30.0308 101.441 30.2643 100.694 30.4443C97.6509 31.0677 92.9039 30.755 92.9039 35.1123C92.9039 37.8826 94.8897 39.1827 97.4698 39.1827C99.0935 39.1827 100.745 38.7434 101.878 37.5244C101.957 37.9657 101.957 38.3793 102.138 38.7948H106.549C106.031 37.7322 106.031 36.4875 106.031 35.3458V29.4589ZM99.1191 36.4519C98.1134 36.4519 97.2888 36.0364 97.2888 34.9203C97.2888 33.8577 98.0878 33.4442 99.0935 33.2107C100.048 32.9257 101.184 32.8723 101.802 32.4845C101.906 35.2844 101.209 36.4519 99.1191 36.4519Z" fill="#00040C"/>
<path d="M115.986 25.3271L113.459 34.0912H113.407L110.878 25.3271H106.236L109.692 34.6868C109.949 35.415 110.802 37.4888 110.802 38.215C110.802 39.147 110.054 39.7169 109.048 39.7169H107.527V43.2965H109.589C112.53 43.2965 114.155 42.9344 115.187 39.9781L120.473 25.3351L115.986 25.3271Z" fill="#00040C"/>
<path fill-rule="evenodd" clip-rule="evenodd" d="M65.4825 31.8531C65.1885 30.7648 64.6544 29.7571 63.9199 28.9048C63.1785 28.0829 62.247 27.4576 61.2078 27.0843C59.9469 26.6441 58.6179 26.4337 57.2835 26.4629C56.1465 26.4467 55.0182 26.6635 53.9673 27.1001C52.3136 27.7901 50.9561 29.0462 50.1354 30.6461C50.074 30.2055 49.9548 29.775 49.7811 29.3658C49.5198 28.7456 49.1214 28.1933 48.616 27.7511C48.1223 27.3247 47.5517 26.9975 46.9353 26.7875C46.3018 26.5695 45.6367 26.4592 44.9672 26.461C43.7864 26.461 42.799 26.6588 42.0052 27.0546C41.1945 27.4569 40.4974 28.0577 39.9781 28.8019H39.9191V26.8448H34.2844V30.3315C34.0049 29.8162 33.6638 29.337 33.2689 28.9048C32.5421 28.129 31.6564 27.5214 30.673 27.1238C29.4834 26.6525 28.2119 26.4258 26.9336 26.457C25.6554 26.4261 24.384 26.6528 23.1943 27.1238C22.4234 27.4489 21.7107 27.8988 21.0845 28.4556V26.8448H18.0084C17.969 26.1325 18.0819 25.6477 18.3469 25.3904C18.6126 25.1352 19.1007 25.0065 19.8072 25.0065C20.0453 25.0064 20.2827 25.0309 20.5157 25.0798C20.7519 25.1292 20.9861 25.1728 21.2223 25.2143V21.1816C20.7696 21.1591 20.3301 21.1341 19.9036 21.1064C19.4772 21.0787 19.0397 21.0641 18.5909 21.0628C17.5971 21.0469 16.6041 21.131 15.627 21.3141C14.8125 21.4942 14.0689 21.912 13.4897 22.5153C12.9325 23.0633 12.5607 23.7735 12.4269 24.5455C12.2902 25.3037 12.2414 26.0753 12.2813 26.8448H9.89987V30.4601H12.2891V42.2319H18.1324V30.4601H19.5376C19.3696 30.7855 19.2256 31.1228 19.1066 31.4693C18.7687 32.4512 18.599 33.4836 18.6047 34.5225C18.5999 35.5666 18.7695 36.6041 19.1066 37.5916C19.4282 38.5462 19.9451 39.4225 20.624 40.164C21.3498 40.94 22.2349 41.5477 23.2179 41.945C24.4074 42.4167 25.6789 42.6441 26.9573 42.6138C28.2356 42.6443 29.5072 42.4169 30.6966 41.945C31.6805 41.5484 32.5665 40.9406 33.2925 40.164C33.6884 39.7304 34.0295 39.2492 34.3081 38.7314V42.2259H40.1474V34.107C40.1317 33.5991 40.2063 33.0925 40.3678 32.611C40.4863 32.2717 40.6778 31.9629 40.9287 31.7067C41.139 31.4983 41.3973 31.3454 41.6805 31.2615C41.9394 31.1846 42.2077 31.1447 42.4776 31.1428C42.83 31.1237 43.1809 31.201 43.4931 31.3664C43.7403 31.514 43.9404 31.7295 44.0698 31.9877C44.207 32.2916 44.2877 32.6182 44.3079 32.9514C44.3453 33.3273 44.3669 33.733 44.3669 34.1663V42.2319H50.2121V38.7235C50.5904 39.4011 51.0786 40.0104 51.6567 40.5262C52.4518 41.2255 53.3798 41.7553 54.3845 42.0835C55.483 42.4462 56.633 42.6266 57.7893 42.6177C58.6377 42.6184 59.4832 42.5188 60.3084 42.3209C61.1022 42.1312 61.8659 41.8315 62.5776 41.4305C63.2738 41.0363 63.8976 40.525 64.4217 39.9187C64.9656 39.2814 65.3855 38.5471 65.6596 37.7539H60.2336C59.9833 38.14 59.6132 38.4321 59.1807 38.585C58.7312 38.76 58.2536 38.8506 57.7716 38.8521C56.8426 38.8521 56.1315 38.5751 55.6382 38.021C55.122 37.4145 54.8196 36.6534 54.7781 35.8562H65.9844C66.0038 34.5049 65.8348 33.1574 65.4825 31.8531ZM29.376 35.8107C29.333 36.2368 29.2178 36.6524 29.0356 37.0395C28.8639 37.4115 28.6003 37.7331 28.27 37.9735C27.8795 38.2386 27.414 38.3691 26.9435 38.3455C26.4702 38.3696 26.0021 38.2368 25.6111 37.9676C25.2807 37.7267 25.0166 37.4053 24.8435 37.0336C24.6629 36.646 24.5485 36.2306 24.505 35.8048C24.4059 34.9502 24.4059 34.0869 24.505 33.2324C24.5477 32.8108 24.6622 32.3998 24.8435 32.0174C25.0207 31.6522 25.2843 31.3363 25.6111 31.0972C26.0025 30.8343 26.4674 30.7046 26.9376 30.7272C27.4077 30.7049 27.8726 30.8346 28.2641 31.0972C28.5908 31.3358 28.8538 31.6519 29.0297 32.0174C29.2125 32.3994 29.3277 32.8105 29.3701 33.2324C29.4692 34.0869 29.4692 34.9502 29.3701 35.8048L29.376 35.8107ZM54.8076 32.803C54.9454 31.9732 55.2596 31.3354 55.7503 30.8895C56.241 30.4436 56.9299 30.222 57.8168 30.2246C58.1594 30.2136 58.5005 30.2752 58.8179 30.4054C59.1353 30.5356 59.4219 30.7316 59.659 30.9805C59.8937 31.2208 60.0784 31.5058 60.2024 31.8187C60.3264 32.1316 60.3872 32.4662 60.3812 32.803H54.8076Z" fill="white"/>
<path fill-rule="evenodd" clip-rule="evenodd" d="M63.2212 20.6037C63.17 21.2884 63.1188 21.975 63.0696 22.6498C66.7578 23.2612 68.8676 25.4003 69.4659 29.0848L71.5501 28.9206C71.2215 23.8806 66.7539 20.574 63.2212 20.6037Z" fill="white"/>
<path fill-rule="evenodd" clip-rule="evenodd" d="M63.4928 24.5773C63.4397 25.2619 63.3846 25.9505 63.3275 26.6787C64.5713 26.8885 65.2385 27.6444 65.4766 28.8217L67.5648 28.6516C67.553 26.6174 65.3881 24.4546 63.4928 24.5773Z" fill="white"/>
</svg>
