<svg width="128" height="64" viewBox="0 0 128 64" fill="none" xmlns="http://www.w3.org/2000/svg">
<rect width="128" height="64" rx="10" fill="white"/>
<path d="M58.741 11.4358C58.2795 10.9358 57.7026 10.6666 56.9719 10.6666H17.1296C16.3989 10.6666 15.7835 10.9358 15.3605 11.4358C14.899 11.9357 14.7067 12.5511 14.8221 13.2818L17.668 40.6253C17.8218 42.2405 19.1678 44.2403 20.5139 45.0864L34.5894 53.3933C35.2432 53.7779 36.1662 54.0086 37.0892 54.0086C38.0506 54.0086 38.9352 53.7779 39.589 53.3933L53.6645 45.0864C55.049 44.3173 56.3181 42.2405 56.5104 40.6253L59.3563 13.2818C59.3563 12.628 59.2025 11.9357 58.741 11.4358ZM47.2036 41.7406C46.0499 42.5097 44.5116 42.2021 43.7424 41.0868L36.5508 30.5109L32.205 34.8566V39.6639C32.205 41.0483 31.0898 42.1636 29.7053 42.1636C28.3208 42.1636 27.2055 41.0483 27.2055 39.6639V18.8197C27.2055 17.4352 28.3208 16.3199 29.7053 16.3199C31.0898 16.3199 32.205 17.4352 32.205 18.8197V27.7804L42.9348 17.0506C43.8962 16.0892 45.5115 16.0892 46.4729 17.0506C47.4344 18.0121 47.4344 19.6273 46.4729 20.5888L40.1274 26.8958C40.1274 26.9343 40.1658 26.9343 40.1658 26.9728L47.8574 38.2409C48.6266 39.3947 48.3189 40.933 47.2036 41.7406Z" fill="#5D2E8E"/>
<path fill-rule="evenodd" clip-rule="evenodd" d="M120.889 20.5888V38.0102C120.889 40.3561 118.966 42.279 116.62 42.279H58.5102L58.6641 40.433H116.62C117.928 40.433 119.043 39.3178 119.043 38.0102V20.5119C119.043 19.2043 117.928 18.089 116.62 18.089H61.01L61.1638 16.243H116.62C118.966 16.243 120.889 18.1659 120.889 20.5888Z" fill="#5D2E8E"/>
<path fill-rule="evenodd" clip-rule="evenodd" d="M65.8557 24.55C65.8557 24.2808 65.7019 24.1654 65.4711 24.1654H64.702V22.5886H66.471C67.3171 22.5886 67.7017 22.8194 67.7017 23.7039V29.8956H68.5477C68.8939 29.8956 69.3169 29.7802 69.5476 29.511L71.7782 26.4344H73.8549L71.2782 29.9341C70.8168 30.4725 70.5475 30.6648 70.5475 30.6648V30.7032C70.5475 30.7032 70.8937 30.8186 71.1629 31.4339L72.5474 34.0106C72.7012 34.2798 72.8935 34.3952 73.3934 34.3952H73.9318V35.9335H72.5858C71.7013 35.9335 71.4321 35.7797 71.009 35.049L69.2784 31.857C69.0477 31.5108 68.6631 31.4724 68.317 31.4724H67.5863V35.972H65.7403L65.8557 24.55Z" fill="#5D2E8E"/>
<path fill-rule="evenodd" clip-rule="evenodd" d="M75.8163 24.5883C75.8163 24.3191 75.6624 24.2037 75.4317 24.2037H74.6625V22.627H76.4316C77.2777 22.627 77.6623 22.9731 77.6623 23.7807V27.5111C77.6623 27.9726 77.6238 28.2803 77.6238 28.2803H77.6623C78.0468 27.3188 79.2775 26.1651 81.1619 26.1651C83.3925 26.1651 84.3924 27.3957 84.3924 29.857V33.972C84.3924 34.2412 84.5462 34.3566 84.777 34.3566H85.5461V35.8949H83.7771C82.931 35.8949 82.5464 35.5488 82.5464 34.6643V30.2801C82.5464 28.934 82.2772 27.8957 80.7773 27.8957C79.3159 27.8957 78.1622 28.8956 77.7776 30.2416C77.6622 30.6262 77.6238 31.0877 77.6238 31.5107V35.9718H75.7778L75.8163 24.5883Z" fill="#5D2E8E"/>
<path d="M90.5072 34.7028C92.084 34.7028 93.0839 33.0876 93.0839 31.7031V31.357H92.6224C91.2379 31.357 88.7766 31.3954 88.7766 33.2029C88.6997 34.0106 89.315 34.7028 90.5072 34.7028ZM92.6224 30.0494H93.007V29.934C93.007 28.2803 92.3916 27.665 90.8918 27.665C90.4303 27.665 89.315 27.7804 89.315 28.3957V28.9341H87.5844V27.9727C87.5844 26.3959 89.9688 26.2036 90.8533 26.2036C93.9299 26.2036 94.7376 27.8188 94.7376 29.934V34.0106C94.7376 34.2798 94.8914 34.4336 95.1221 34.4336H95.8913V35.9719H94.1607C93.3146 35.9719 93.007 35.5873 93.007 34.8566C93.007 34.5105 93.0454 34.3182 93.0454 34.3182H93.007C93.007 34.3182 92.2378 36.2027 90.0072 36.2027C88.392 36.2027 86.7768 35.2028 86.7768 33.3183C86.8537 30.2801 91.0456 30.0494 92.6224 30.0494Z" fill="#5D2E8E"/>
<path fill-rule="evenodd" clip-rule="evenodd" d="M97.5065 24.2808H96.6604V22.704H98.4295C99.2756 22.704 99.6601 23.0501 99.6601 23.9346V34.0106C99.6601 34.2798 99.814 34.3952 100.045 34.3952H100.814V35.9335H99.0448C98.1987 35.9335 97.8142 35.5874 97.8142 34.7028V24.6653C97.8526 24.6653 97.8911 24.2808 97.5065 24.2808Z" fill="#5D2E8E"/>
<path fill-rule="evenodd" clip-rule="evenodd" d="M102.891 27.8956H101.66V26.4342H102.929V23.7806H104.698V26.4342H106.967V27.8956H104.737V32.2414C104.737 34.1258 106.044 34.4335 106.698 34.4335C106.967 34.4335 107.159 34.4335 107.159 34.4335V35.9333C107.159 35.9333 106.929 35.9718 106.544 35.9718C105.313 35.9718 102.929 35.5872 102.929 32.3952V27.8956H102.891Z" fill="#5D2E8E"/>
<path fill-rule="evenodd" clip-rule="evenodd" d="M110.121 22.6655H111.274C111.39 22.6655 111.505 22.7809 111.505 22.8963V24.3192C111.505 24.4346 111.39 24.55 111.274 24.55H110.121C110.005 24.55 109.89 24.4346 109.89 24.3192V22.8963C109.89 22.7424 109.967 22.6655 110.121 22.6655Z" fill="#5D2E8E"/>
<path fill-rule="evenodd" clip-rule="evenodd" d="M109.813 28.3957C109.813 28.1265 109.659 28.0111 109.428 28.0111H108.659V26.4343H110.428C111.274 26.4343 111.659 26.7804 111.659 27.665V34.0105C111.659 34.2797 111.813 34.3951 112.044 34.3951H112.813V35.9334H111.044C110.198 35.9334 109.813 35.5873 109.813 34.7028V28.3957Z" fill="#5D2E8E"/>
<path fill-rule="evenodd" clip-rule="evenodd" d="M11.8617 17.8142L7.2177 18.8824L10.4444 32.6577L14.7905 31.6981L11.8617 17.8142Z" fill="#F9A61C"/>
<path d="M13.4218 17.5727L7.1111 18.2361L8.65489 32.9229L14.9655 32.2595L13.4218 17.5727Z" fill="#F9A61C"/>
</svg>
