<?xml version="1.0"?>
<svg xmlns="http://www.w3.org/2000/svg" xmlns:xlink="http://www.w3.org/1999/xlink" xmlns:svgjs="http://svgjs.com/svgjs" version="1.1" width="512" height="512" x="0" y="0" viewBox="0 0 500.552 500.552" style="enable-background:new 0 0 512 512" xml:space="preserve" class=""><g>
<linearGradient xmlns="http://www.w3.org/2000/svg" id="SVGID_1_" gradientUnits="userSpaceOnUse" x1="-41.7961" y1="561.2822" x2="25.6009" y2="628.6782" gradientTransform="matrix(8 0 0 -8 383.2079 5033.854)"><stop stop-opacity="1" stop-color="#42445a" offset="0"/><stop stop-opacity="1" stop-color="#42445a" offset="0.3552561752730807"/><stop stop-opacity="1" stop-color="#45b34a" offset="0.6177944150486684"/></linearGradient>
<path xmlns="http://www.w3.org/2000/svg" style="fill:url(#SVGID_1_);" d="M466.512,334.253c-46.326,119.462-180.724,178.75-300.186,132.424  C100.939,441.321,50.532,387.749,29.2,320.941c-1.343-4.211-5.845-6.535-10.056-5.192c-4.211,1.343-6.535,5.845-5.192,10.056  c41.682,130.47,181.239,202.447,311.709,160.765c71.752-22.923,129.197-77.213,156.131-147.557l15.2,4.712l3.56-89.72  l-47.984,75.912L466.512,334.253z" fill=""/>
<linearGradient xmlns="http://www.w3.org/2000/svg" id="SVGID_2_" gradientUnits="userSpaceOnUse" x1="-53.2121" y1="572.6932" x2="14.1859" y2="640.0942" gradientTransform="matrix(8 0 0 -8 383.2079 5033.854)"><stop stop-opacity="1" stop-color="#45b34a" offset="0.34753446233850455"/><stop stop-opacity="1" stop-color="#42445a" offset="0.5637424245066356"/><stop stop-opacity="1" stop-color="#42445a" offset="0.7065941137962937"/><stop stop-opacity="1" stop-color="#45b34a" offset="1"/></linearGradient>
<path xmlns="http://www.w3.org/2000/svg" style="fill:url(#SVGID_2_);" d="M34,166.381C80.303,46.91,214.689-12.405,334.161,33.898  c65.98,25.572,116.682,79.857,137.695,147.427c1.049,3.336,4.143,5.604,7.64,5.6c0.813,0,1.622-0.121,2.4-0.36  c4.219-1.312,6.576-5.795,5.265-10.014c0-0.001,0-0.001-0.001-0.002C446.474,45.765,307.469-27.274,176.685,13.413  C104.098,35.994,45.877,90.619,18.72,161.621l-15.16-4.712L0,246.629l47.944-75.912L34,166.381z" fill=""/>
<g xmlns="http://www.w3.org/2000/svg">
</g>
<g xmlns="http://www.w3.org/2000/svg">
</g>
<g xmlns="http://www.w3.org/2000/svg">
</g>
<g xmlns="http://www.w3.org/2000/svg">
</g>
<g xmlns="http://www.w3.org/2000/svg">
</g>
<g xmlns="http://www.w3.org/2000/svg">
</g>
<g xmlns="http://www.w3.org/2000/svg">
</g>
<g xmlns="http://www.w3.org/2000/svg">
</g>
<g xmlns="http://www.w3.org/2000/svg">
</g>
<g xmlns="http://www.w3.org/2000/svg">
</g>
<g xmlns="http://www.w3.org/2000/svg">
</g>
<g xmlns="http://www.w3.org/2000/svg">
</g>
<g xmlns="http://www.w3.org/2000/svg">
</g>
<g xmlns="http://www.w3.org/2000/svg">
</g>
<g xmlns="http://www.w3.org/2000/svg">
</g>
</g></svg>
