<?xml version="1.0" encoding="utf-8"?>
<!-- Generator: Adobe Illustrator 24.1.2, SVG Export Plug-In . SVG Version: 6.00 Build 0)  -->
<svg version="1.1" id="Layer_1" xmlns="http://www.w3.org/2000/svg" xmlns:xlink="http://www.w3.org/1999/xlink" x="0px" y="0px"
	 viewBox="0 0 1440 320" style="enable-background:new 0 0 1440 320;" xml:space="preserve">
<style type="text/css">
	.st0{opacity:0.11;fill:#74C381;}
</style>
<path class="st0" d="M1440,212.5l-60-36.1c-60-35.6-180.1-108.6-300.2-79.3c-120.1,28.8-240.2,158.7-360.2,158.7
	S479.4,125.9,359.3,75.4c-120.1-51-240.2-21.2-360.2-7.3C-121,82.6-241.1,82.6-301.1,82.6h-60V-4h60c60,0,180.1,0,300.2,0
	s240.2,0,360.2,0s240.2,0,360.2,0s240.2,0,360.2,0s240.2,0,300.2,0h60V212.5z"/>
</svg>
