<?xml version="1.0" standalone="no"?>
<!DOCTYPE svg PUBLIC "-//W3C//DTD SVG 20010904//EN"
 "http://www.w3.org/TR/2001/REC-SVG-20010904/DTD/svg10.dtd">
<svg version="1.0" xmlns="http://www.w3.org/2000/svg"
 width="500.000000pt" height="500.000000pt" viewBox="0 0 500.000000 500.000000"
 preserveAspectRatio="xMidYMid meet">

<g transform="translate(0.000000,500.000000) scale(0.100000,-0.100000)"
fill="#000000" stroke="none">
<path d="M3830 4582 c0 -5 7 -9 15 -9 8 0 12 4 9 9 -3 4 -9 8 -15 8 -5 0 -9
-4 -9 -8z"/>
<path d="M3887 4559 c7 -7 15 -10 18 -7 3 3 -2 9 -12 12 -14 6 -15 5 -6 -5z"/>
<path d="M3812 4500 c0 -14 2 -19 5 -12 2 6 2 18 0 25 -3 6 -5 1 -5 -13z"/>
<path d="M3966 4463 c-6 -14 -5 -15 5 -6 7 7 10 15 7 18 -3 3 -9 -2 -12 -12z"/>
<path d="M3791 4424 c0 -11 3 -14 6 -6 3 7 2 16 -1 19 -3 4 -6 -2 -5 -13z"/>
<path d="M3781 4374 c0 -11 3 -14 6 -6 3 7 2 16 -1 19 -3 4 -6 -2 -5 -13z"/>
<path d="M3771 4334 c0 -11 3 -14 6 -6 3 7 2 16 -1 19 -3 4 -6 -2 -5 -13z"/>
<path d="M3860 4309 c0 -5 5 -7 10 -4 6 3 10 8 10 11 0 2 -4 4 -10 4 -5 0 -10
-5 -10 -11z"/>
<path d="M3751 4244 c0 -11 3 -14 6 -6 3 7 2 16 -1 19 -3 4 -6 -2 -5 -13z"/>
<path d="M3274 4216 c-10 -17 -15 -43 -13 -80 3 -65 -15 -97 -161 -271 -86
-104 -91 -112 -89 -152 4 -58 -11 -72 -47 -44 -15 11 -31 21 -36 21 -6 0 -122
-63 -259 -139 l-250 -140 -392 -26 c-633 -42 -624 -42 -674 -66 -54 -26 -94
-82 -100 -142 -6 -48 24 -174 157 -662 43 -159 156 -576 250 -925 94 -349 183
-669 196 -711 39 -121 114 -192 216 -205 49 -6 1313 110 1370 126 77 22 101
90 69 196 -26 86 -306 976 -370 1179 -27 83 -51 160 -55 173 -5 16 -3 22 7 22
21 0 126 72 132 90 3 8 -4 43 -14 77 -17 55 -17 64 -4 75 19 15 11 87 -10 103
-11 8 -12 16 -5 29 7 12 5 42 -6 99 -17 84 -35 112 -68 103 -23 -5 -24 20 -2
28 13 5 15 15 11 48 -3 22 -11 45 -19 50 -10 8 -10 11 0 15 7 3 34 19 60 37
44 30 47 34 45 74 -2 45 5 50 40 27 20 -13 35 -12 136 5 62 11 155 20 205 20
87 0 94 -2 117 -26 29 -31 71 -54 99 -54 15 0 26 11 37 38 59 142 -178 702
-399 938 -90 96 -142 117 -174 70z m82 -5 c150 -91 404 -534 470 -817 21 -91
21 -181 1 -201 -78 -78 -387 364 -501 717 -56 172 -67 268 -34 307 14 18 28
16 64 -6z m-62 -253 c55 -188 188 -454 306 -609 l57 -76 -96 -6 c-53 -3 -140
-13 -194 -23 l-97 -17 -26 24 c-14 13 -34 39 -46 57 -11 18 -23 31 -26 28 -3
-3 7 -24 22 -46 l26 -40 -29 -15 c-29 -15 -29 -15 -82 43 -66 73 -141 222
-147 296 -4 49 -2 53 23 64 33 15 38 11 55 -43 16 -49 66 -151 79 -159 5 -3
-8 34 -30 82 -21 48 -46 117 -56 154 l-17 66 27 36 c16 20 51 62 79 93 27 32
71 86 96 120 26 34 47 61 49 59 1 -1 14 -41 27 -88z m-336 -301 c10 -8 9 -14
-4 -28 -15 -16 -15 -26 -5 -76 27 -134 173 -352 227 -339 16 4 23 1 27 -14 6
-24 -7 -41 -60 -74 -51 -31 -62 -33 -37 -5 19 21 19 21 -11 45 -17 13 -39 24
-49 24 -21 0 -153 -69 -254 -133 -66 -42 -65 -38 -45 -98 3 -12 -11 -26 -52
-49 l-56 -32 -53 41 c-69 52 -116 109 -159 196 -56 113 -83 213 -64 238 17 23
560 326 572 319 6 -3 16 -10 23 -15z m-598 -281 c-12 -12 -64 -16 -250 -20
-258 -5 -251 -1 35 18 105 8 199 14 210 15 17 1 17 -1 5 -13z m-931 -69 c-65
-43 -67 -68 -28 -296 11 -62 18 -115 16 -118 -7 -6 -87 293 -87 325 0 51 60
110 114 111 14 1 10 -5 -15 -22z m929 -69 c22 -94 89 -214 158 -283 65 -65 66
-75 10 -75 -63 0 -166 124 -205 243 -32 102 -33 112 -10 141 11 14 24 26 27
26 4 0 13 -23 20 -52z m-1041 5 c-9 -34 4 -87 128 -528 75 -269 157 -560 182
-645 24 -85 109 -386 188 -668 80 -281 151 -525 159 -541 22 -41 80 -88 123
-100 30 -9 180 2 706 49 368 33 676 60 684 60 13 0 12 -5 -7 -25 -13 -13 -30
-27 -39 -30 -18 -5 -1047 -103 -1161 -110 -41 -2 -67 -2 -57 1 25 8 17 38 -11
42 -24 4 -45 -29 -24 -36 7 -2 12 -8 12 -13 0 -14 -147 -11 -183 4 -47 20 -95
64 -117 106 -10 21 -125 431 -255 912 -130 481 -268 991 -307 1134 -71 261
-80 323 -58 366 11 22 40 59 45 59 1 0 -2 -17 -8 -37z m1766 -91 c16 -15 16
-17 -5 -39 -12 -13 -30 -23 -41 -23 -19 0 -167 -91 -221 -137 l-29 -25 -13 24
c-7 13 -13 26 -14 30 0 3 52 36 115 73 63 37 118 72 122 78 8 13 -134 -64
-195 -105 -24 -17 -46 -28 -49 -25 -12 13 284 180 301 170 6 -3 19 -13 29 -21z
m-820 -27 c8 -58 65 -170 111 -217 37 -38 43 -40 151 -38 112 1 142 6 189 33
27 15 51 26 53 24 2 -2 -18 -35 -43 -73 -51 -75 -109 -194 -169 -346 -38 -96
-38 -96 -127 -169 -50 -40 -93 -81 -97 -92 -16 -44 21 -174 79 -274 34 -59 71
-89 93 -76 16 9 81 88 150 183 26 36 64 74 83 85 19 10 37 28 40 40 6 25 180
200 187 188 3 -4 98 -302 212 -661 132 -417 205 -663 203 -684 -6 -63 -2 -62
-591 -118 -296 -27 -559 -50 -585 -50 -52 0 -102 25 -125 62 -13 20 -620 2100
-629 2153 -3 19 10 21 357 46 198 14 381 27 406 28 l46 1 6 -45z m75 -77 c19
-42 50 -91 68 -109 19 -18 34 -37 34 -41 0 -19 -26 -5 -63 35 -52 55 -97 150
-96 202 0 38 1 38 11 15 6 -14 27 -60 46 -102z m753 12 c10 -6 19 -21 19 -34
0 -18 -7 -25 -30 -30 -48 -9 -210 -130 -234 -174 -9 -16 -8 -16 10 0 19 17
196 91 247 103 16 5 33 2 42 -5 20 -17 20 -60 -1 -60 -20 0 -136 -61 -130 -68
3 -2 35 10 73 27 64 30 68 31 81 14 17 -24 12 -95 -8 -101 -13 -5 -13 -3 -1
11 25 30 -3 18 -71 -33 -38 -27 -68 -55 -68 -61 0 -8 7 -6 18 4 9 9 43 26 75
38 67 26 90 16 85 -34 -3 -26 -13 -35 -70 -66 -54 -29 -84 -55 -148 -131 -44
-52 -109 -120 -144 -152 -35 -31 -69 -70 -75 -87 -7 -16 -25 -34 -39 -40 -16
-7 -68 -66 -125 -141 -54 -72 -102 -130 -108 -130 -35 0 -110 139 -135 250
-16 69 -16 73 3 98 11 15 55 54 98 87 l77 60 49 120 c85 206 146 323 197 374
26 26 89 75 140 109 95 63 131 74 173 52z m-11 -104 c0 -16 -7 -25 -22 -29
-13 -2 -50 -17 -83 -31 -34 -16 -54 -21 -45 -12 19 19 133 95 143 96 4 0 7
-11 7 -24z m114 -427 c12 -43 14 -64 7 -73 -18 -22 -111 -68 -126 -62 -8 3
-23 23 -35 45 l-20 40 32 37 c27 31 95 73 119 74 4 0 14 -27 23 -61z m-73
-355 c37 -120 66 -220 64 -222 -2 -2 -22 54 -44 125 -22 70 -56 175 -76 233
-19 57 -30 99 -24 93 6 -6 42 -109 80 -229z m389 -1251 c0 -12 -4 -24 -8 -27
-11 -6 -590 -58 -604 -54 -6 2 58 12 143 21 185 22 373 53 399 67 25 14 25 42
0 163 -10 53 -22 108 -24 124 -3 15 17 -39 44 -122 27 -82 50 -160 50 -172z"/>
<path d="M3320 4175 c-72 -86 292 -843 442 -921 39 -20 48 -11 48 44 0 175
-259 708 -414 850 -50 46 -58 49 -76 27z m78 -51 c135 -141 342 -551 390 -771
27 -124 -8 -119 -112 17 -23 30 -62 86 -85 124 -36 57 -42 73 -32 88 16 26 14
54 -9 96 -30 56 -45 72 -76 81 -23 6 -33 21 -61 87 -66 154 -104 324 -71 324
6 0 31 -21 56 -46z m128 -450 c15 -31 23 -61 20 -71 -5 -13 -15 -4 -41 42 -19
33 -35 68 -35 77 0 32 29 7 56 -48z"/>
<path d="M1347 2928 c-2 -7 10 -65 27 -128 23 -84 36 -116 48 -118 16 -3 15 2
-3 65 -11 37 -27 96 -36 131 -17 61 -26 74 -36 50z"/>
<path d="M1433 2635 c-3 -11 6 -68 22 -129 26 -105 46 -148 61 -133 5 5 -62
265 -72 276 -2 2 -7 -4 -11 -14z"/>
<path d="M2745 791 c-43 -4 -60 -10 -60 -21 0 -11 12 -13 50 -11 95 5 158 16
163 29 4 13 -39 14 -153 3z"/>
<path d="M3056 1441 c-4 -6 3 -8 18 -5 17 3 26 -1 30 -13 4 -14 4 -14 3 2 -2
21 -41 34 -51 16z"/>
<path d="M2987 1433 c-4 -3 -7 -11 -7 -17 0 -7 3 -7 8 0 4 7 16 14 27 17 19 5
19 5 -1 6 -11 0 -24 -2 -27 -6z"/>
<path d="M3081 1377 c-13 -21 -12 -21 5 -5 10 10 16 20 13 22 -3 3 -11 -5 -18
-17z"/>
<path d="M2950 2745 c-20 -24 -6 -28 15 -5 10 11 13 20 8 20 -6 0 -16 -7 -23
-15z"/>
<path d="M3790 4200 c-6 -11 -8 -20 -6 -20 3 0 10 9 16 20 6 11 8 20 6 20 -3
0 -10 -9 -16 -20z"/>
<path d="M4085 4130 c-17 -18 -17 -20 -2 -14 9 3 17 10 17 16 0 5 5 6 12 2 7
-4 8 -3 4 4 -9 16 -10 15 -31 -8z"/>
<path d="M3726 4118 c3 -5 10 -6 15 -3 13 9 11 12 -6 12 -8 0 -12 -4 -9 -9z"/>
<path d="M4130 4105 c0 -6 9 -21 20 -35 11 -14 20 -31 20 -37 0 -7 5 -13 11
-13 10 0 2 17 -38 75 -7 11 -13 15 -13 10z"/>
<path d="M3715 4089 c-4 -6 -5 -12 -2 -15 2 -3 7 2 10 11 7 17 1 20 -8 4z"/>
<path d="M4048 4083 c-18 -21 -31 -43 -25 -43 2 0 13 14 25 30 25 33 24 41 0
13z"/>
<path d="M3964 3978 l-19 -23 23 19 c12 11 22 21 22 23 0 8 -8 2 -26 -19z"/>
<path d="M4210 3970 c0 -5 5 -10 11 -10 5 0 7 5 4 10 -3 6 -8 10 -11 10 -2 0
-4 -4 -4 -10z"/>
<path d="M4240 3930 c6 -11 13 -20 16 -20 2 0 0 9 -6 20 -6 11 -13 20 -16 20
-2 0 0 -9 6 -20z"/>
<path d="M3910 3915 c-7 -9 -11 -17 -9 -20 3 -2 10 5 17 15 14 24 10 26 -8 5z"/>
<path d="M4248 3893 c7 -3 16 -2 19 1 4 3 -2 6 -13 5 -11 0 -14 -3 -6 -6z"/>
<path d="M4188 3883 c6 -2 18 -2 25 0 6 3 1 5 -13 5 -14 0 -19 -2 -12 -5z"/>
<path d="M3854 3843 c-15 -20 -21 -32 -13 -27 8 4 23 8 34 7 17 -1 17 -1 2 3
-17 5 -17 7 -2 30 24 37 11 29 -21 -13z"/>
<path d="M4133 3873 c9 -2 23 -2 30 0 6 3 -1 5 -18 5 -16 0 -22 -2 -12 -5z"/>
<path d="M4088 3863 c7 -3 16 -2 19 1 4 3 -2 6 -13 5 -11 0 -14 -3 -6 -6z"/>
<path d="M4028 3853 c6 -2 18 -2 25 0 6 3 1 5 -13 5 -14 0 -19 -2 -12 -5z"/>
<path d="M3918 3833 c7 -3 16 -2 19 1 4 3 -2 6 -13 5 -11 0 -14 -3 -6 -6z"/>
<path d="M4012 3560 c14 -4 32 -11 39 -15 8 -6 10 -4 4 5 -6 10 -4 12 8 7 10
-3 17 -3 17 2 0 4 -21 8 -47 8 -39 0 -43 -1 -21 -7z"/>
<path d="M4246 3545 c4 -8 8 -15 10 -15 2 0 4 7 4 15 0 8 -4 15 -10 15 -5 0
-7 -7 -4 -15z"/>
<path d="M4120 3520 c8 -5 20 -10 25 -10 6 0 3 5 -5 10 -8 5 -19 10 -25 10 -5
0 -3 -5 5 -10z"/>
<path d="M4241 3494 c0 -11 3 -14 6 -6 3 7 2 16 -1 19 -3 4 -6 -2 -5 -13z"/>
<path d="M3515 2881 c-110 -23 -109 -22 -102 -98 9 -91 24 -117 68 -121 43 -4
216 33 236 50 18 15 11 98 -12 154 -13 32 -16 34 -62 33 -26 -1 -84 -9 -128
-18z m95 -92 c0 -4 -13 -17 -29 -28 l-29 -21 -6 23 c-13 50 -9 56 29 44 19 -6
35 -14 35 -18z"/>
<path d="M1093 2500 c-12 -5 -28 -18 -34 -28 -10 -15 -20 -19 -48 -15 -52 7
-91 -25 -91 -76 0 -26 7 -44 23 -58 22 -21 159 -93 175 -93 14 0 82 166 82
199 0 29 -29 71 -49 71 -5 0 -15 2 -23 4 -7 3 -23 1 -35 -4z"/>
<path d="M3263 2094 c-7 -20 4 -145 14 -155 15 -13 115 7 125 25 9 16 11 16
25 -3 18 -27 73 -28 96 -3 22 24 21 32 -3 32 -11 0 -20 -4 -20 -10 0 -13 -37
-13 -45 -1 -3 6 15 13 40 16 48 8 54 18 29 53 -27 38 -85 26 -112 -23 -12 -22
-16 -12 -12 37 2 34 -23 48 -85 48 -32 0 -47 -5 -52 -16z m97 -39 c0 -9 -9
-15 -25 -15 -16 0 -25 6 -25 15 0 9 9 15 25 15 16 0 25 -6 25 -15z m135 -25
c4 -6 -5 -10 -20 -10 -15 0 -24 4 -20 10 3 6 12 10 20 10 8 0 17 -4 20 -10z
m-127 -37 c-2 -11 -14 -19 -31 -21 -22 -3 -27 1 -27 17 0 17 6 21 31 21 24 0
30 -4 27 -17z"/>
<path d="M3468 2102 c-40 -5 -34 -22 7 -22 19 0 35 4 35 9 0 14 -11 17 -42 13z"/>
<path d="M4091 1836 c-7 -8 -16 -27 -20 -43 -5 -17 -14 -27 -23 -25 -22 3 -31
-39 -11 -53 15 -11 13 -37 -13 -141 -5 -18 0 -22 25 -26 34 -5 33 -7 52 89 11
59 13 62 35 57 14 -4 24 -2 24 4 0 6 3 17 6 25 3 9 -3 16 -16 20 -32 8 -24 52
10 52 28 0 41 32 18 46 -21 14 -74 10 -87 -5z"/>
<path d="M1252 1594 c-119 -71 -126 -85 -80 -161 46 -78 70 -86 137 -44 40 24
61 31 94 29 37 -3 42 -1 40 17 -1 11 5 34 13 52 14 31 13 35 -17 88 -30 54
-53 75 -81 75 -7 0 -55 -25 -106 -56z m113 -54 c3 -6 -1 -13 -10 -16 -19 -8
-30 0 -20 15 8 14 22 14 30 1z m-45 -35 c0 -8 -7 -15 -15 -15 -8 0 -15 7 -15
15 0 8 7 15 15 15 8 0 15 -7 15 -15z m-49 -30 c-1 -15 -24 -12 -29 3 -3 9 2
13 12 10 10 -1 17 -7 17 -13z"/>
</g>
</svg>
